<svg class="main-svg" xmlns="http://www.w3.org/2000/svg" xmlns:xlink="http://www.w3.org/1999/xlink" width="700" height="500" style="" viewBox="0 0 700 500"><rect x="0" y="0" width="700" height="500" style="fill: rgb(255, 255, 255); fill-opacity: 1;"/><defs id="defs-c5b80c"><g class="clips"/><g class="gradients"/></defs><g class="bglayer"/><g class="layer-below"><g class="imagelayer"/><g class="shapelayer"/></g><g class="cartesianlayer"/><g class="polarlayer"/><g class="ternarylayer"/><g class="geolayer"/><g class="funnelarealayer"/><g class="pielayer"/><g class="treemaplayer"/><g class="sunburstlayer"/><g class="glimages"/><g class="sankey" transform="translate(60,25)matrix(1 0 0 1 0 0)" style="box-sizing: content-box; position: absolute; left: 0px; shape-rendering: geometricprecision; pointer-events: auto;"><g class="sankey-links" style="fill: none;"><path class="sankey-link" d="M30,317.1188789651984C115,317.1188789651984 115,373.2809014158059 200,373.2809014158059L200,375.61844376258756C115,375.61844376258756 115,319.4564213119801 30,319.4564213119801Z" style="stroke: rgb(68, 68, 68); stroke-opacity: 1; fill: rgb(0, 0, 0); fill-opacity: 0.2; stroke-width: 0; opacity: 1;"/><path class="sankey-link" d="M30,300.9932245149366C115,300.9932245149366 115,310.3104671688086 200,310.3104671688086L200,326.4361216190704C115,326.4361216190704 115,317.1188789651984 30,317.1188789651984Z" style="stroke: rgb(68, 68, 68); stroke-opacity: 1; fill: rgb(0, 0, 0); fill-opacity: 0.2; stroke-width: 0; opacity: 1;"/><path class="sankey-link" d="M30,400.595934708962C115,400.595934708962 115,347.5756350160522 200,347.5756350160522L200,349.40501598309874C115,349.40501598309874 115,402.4253156760085 30,402.4253156760085Z" style="stroke: rgb(68, 68, 68); stroke-opacity: 1; fill: rgb(0, 0, 0); fill-opacity: 0.2; stroke-width: 0; opacity: 1;"/><path class="sankey-link" d="M30,382.4114567292884C115,382.4114567292884 115,344.3911570363787 200,344.3911570363787L200,347.57563501605216C115,347.57563501605216 115,385.59593470896186 30,385.59593470896186Z" style="stroke: rgb(68, 68, 68); stroke-opacity: 1; fill: rgb(0, 0, 0); fill-opacity: 0.2; stroke-width: 0; opacity: 1;"/><path class="sankey-link" d="M30,433.4077610101631C115,433.4077610101631 115,350.35358389193766 200,350.35358389193766L200,351.94582288177446C115,351.94582288177446 115,434.9999999999999 30,434.9999999999999Z" style="stroke: rgb(68, 68, 68); stroke-opacity: 1; fill: rgb(0, 0, 0); fill-opacity: 0.2; stroke-width: 0; opacity: 1;"/><path class="sankey-link" d="M30,360.0600554357867C115,360.0600554357867 115,337.039755742877 200,337.039755742877L200,344.3911570363787C115,344.3911570363787 115,367.4114567292884 30,367.4114567292884Z" style="stroke: rgb(68, 68, 68); stroke-opacity: 1; fill: rgb(0, 0, 0); fill-opacity: 0.2; stroke-width: 0; opacity: 1;"/><path class="sankey-link" d="M30,334.45642131197997C115,334.45642131197997 115,326.4361216190704 200,326.4361216190704L200,337.039755742877C115,337.039755742877 115,345.0600554357866 30,345.0600554357866Z" style="stroke: rgb(68, 68, 68); stroke-opacity: 1; fill: rgb(0, 0, 0); fill-opacity: 0.2; stroke-width: 0; opacity: 1;"/><path class="sankey-link" d="M30,418.3738835848474C115,418.3738835848474 115,375.6184437625875 200,375.6184437625875L200,375.6523211879032C115,375.6523211879032 115,418.40776101016314 30,418.40776101016314Z" style="stroke: rgb(0, 0, 0); stroke-opacity: 0.2; fill: rgb(0, 0, 0); fill-opacity: 0.2; stroke-width: 1; opacity: 1;"/><path class="sankey-link" d="M30,417.4253156760085C115,417.4253156760085 115,349.40501598309874 200,349.40501598309874L200,350.3535838919377C115,350.3535838919377 115,418.3738835848475 30,418.3738835848475Z" style="stroke: rgb(0, 0, 0); stroke-opacity: 0.2; fill: rgb(0, 0, 0); fill-opacity: 0.2; stroke-width: 1; opacity: 1;"/><path class="sankey-link" d="M30,279.6581459809052C115,279.6581459809052 115,366.94582288177446 200,366.94582288177446L200,373.28090141580583C115,373.28090141580583 115,285.99322451493657 30,285.99322451493657Z" style="stroke: rgb(68, 68, 68); stroke-opacity: 1; fill: rgb(0, 0, 0); fill-opacity: 0.2; stroke-width: 0; opacity: 1;"/><path class="sankey-link" d="M30,-2.2737367544323206e-13C115,-2.2737367544323206e-13 115,30.65232118790317 200,30.65232118790317L200,310.3104671688086C115,310.3104671688086 115,279.6581459809052 30,279.6581459809052Z" style="stroke: rgb(68, 68, 68); stroke-opacity: 1; fill: rgb(0, 0, 0); fill-opacity: 0.2; stroke-width: 0; opacity: 1;"/><path class="sankey-link" d="M230,366.94582288177446C315,366.94582288177446 315,279.5857714813674 400,279.5857714813674L400,288.29226978749614C315,288.29226978749614 315,375.6523211879032 230,375.6523211879032Z" style="stroke: rgb(68, 68, 68); stroke-opacity: 1; fill: rgb(0, 0, 0); fill-opacity: 0.2; stroke-width: 0; opacity: 1;"/><path class="sankey-link" d="M230,30.65232118790317C315,30.65232118790317 315,59.9999999999998 400,59.9999999999998L400,143.77887280566657C315,143.77887280566657 315,114.43119399356993 230,114.43119399356993Z" style="stroke: rgb(68, 68, 68); stroke-opacity: 1; fill: rgb(0, 0, 0); fill-opacity: 0.2; stroke-width: 0; opacity: 1;"/><path class="sankey-link" d="M230,114.43119399356993C315,114.43119399356993 315,158.7788728056667 400,158.7788728056667L400,279.5857714813674C315,279.5857714813674 315,235.2380926692706 230,235.2380926692706Z" style="stroke: rgb(68, 68, 68); stroke-opacity: 1; fill: rgb(0, 0, 0); fill-opacity: 0.2; stroke-width: 0; opacity: 1;"/><path class="sankey-link" d="M230,303.1962078525167C315,303.1962078525167 315,386.2503849707424 400,386.2503849707424L400,435.0000000000002C315,435.0000000000002 315,351.9458228817745 230,351.9458228817745Z" style="stroke: rgb(68, 68, 68); stroke-opacity: 1; fill: rgb(0, 0, 0); fill-opacity: 0.2; stroke-width: 0; opacity: 1;"/><path class="sankey-link" d="M230,235.23809266927057C315,235.23809266927057 315,303.29226978749637 400,303.29226978749637L400,371.2503849707424C315,371.2503849707424 315,303.19620785251664 230,303.19620785251664Z" style="stroke: rgb(68, 68, 68); stroke-opacity: 1; fill: rgb(0, 0, 0); fill-opacity: 0.2; stroke-width: 0; opacity: 1;"/><path class="sankey-link" d="M430,59.9999999999998C515,59.9999999999998 515,75.00000000000028 600,75.00000000000028L600,151.83400061595347C515,151.83400061595347 515,136.834000615953 430,136.834000615953Z" style="stroke: rgb(68, 68, 68); stroke-opacity: 1; fill: rgb(0, 0, 0); fill-opacity: 0.2; stroke-width: 0; opacity: 1;"/><path class="sankey-link" d="M430,136.834000615953C515,136.834000615953 515,379.57653218355415 600,379.57653218355415L600,386.5214043732677C515,386.5214043732677 515,143.77887280566657 430,143.77887280566657Z" style="stroke: rgb(68, 68, 68); stroke-opacity: 1; fill: rgb(0, 0, 0); fill-opacity: 0.2; stroke-width: 0; opacity: 1;"/><path class="sankey-link" d="M430,158.7788728056667C515,158.7788728056667 515,151.83400061595347 600,151.83400061595347L600,232.86880197105046C515,232.86880197105046 515,239.8136741607637 430,239.8136741607637Z" style="stroke: rgb(68, 68, 68); stroke-opacity: 1; fill: rgb(0, 0, 0); fill-opacity: 0.2; stroke-width: 0; opacity: 1;"/><path class="sankey-link" d="M430,239.8136741607637C515,239.8136741607637 515,386.5214043732677 600,386.5214043732677L600,435.0000000000001C515,435.0000000000001 515,288.2922697874961 430,288.2922697874961Z" style="stroke: rgb(68, 68, 68); stroke-opacity: 1; fill: rgb(0, 0, 0); fill-opacity: 0.2; stroke-width: 0; opacity: 1;"/><path class="sankey-link" d="M430,386.2503849707424C515,386.2503849707424 515,232.8688019710505 600,232.8688019710505L600,238.35694487218998C515,238.35694487218998 515,391.73852787188196 430,391.73852787188196Z" style="stroke: rgb(68, 68, 68); stroke-opacity: 1; fill: rgb(0, 0, 0); fill-opacity: 0.2; stroke-width: 0; opacity: 1;"/><path class="sankey-link" d="M430,391.7385278718819C515,391.7385278718819 515,321.315060055436 600,321.315060055436L600,364.57653218355426C515,364.57653218355426 515,435.00000000000017 430,435.00000000000017Z" style="stroke: rgb(68, 68, 68); stroke-opacity: 1; fill: rgb(0, 0, 0); fill-opacity: 0.2; stroke-width: 0; opacity: 1;"/><path class="sankey-link" d="M430,303.29226978749637C515,303.29226978749637 515,253.35694487218987 600,253.35694487218987L600,321.31506005543594C515,321.31506005543594 515,371.2503849707424 430,371.2503849707424Z" style="stroke: rgb(68, 68, 68); stroke-opacity: 1; fill: rgb(0, 0, 0); fill-opacity: 0.2; stroke-width: 0; opacity: 1;"/></g><g class="sankey-node-set" style="cursor: move;"><g class="sankey-node" transform="translate(0.000, 300.993)" style="opacity: 1;"><rect class="node-rect" width="30" height="18.463196797043338" style="stroke-width: 0.5; stroke: rgb(0, 0, 0); stroke-opacity: 1; fill: rgb(31, 119, 180); fill-opacity: 0.8;"/><rect class="node-capture" x="-10" y="-7.5" width="50" height="33.46319679704334" style="fill-opacity: 0;"/><g class="node-entered" transform="translate(0 10.231598398521669)"><path class="node-label-guide" id="620fc1_0_node_0" d="M34,0L630,0" transform="matrix(1 0 0 1 0 0)"/><text class="node-label" transform="scale(1 1)" style="cursor: default; fill: rgb(68, 68, 68); text-shadow: rgb(255, 255, 255) -1px 1px 1px, rgb(255, 255, 255) 1px 1px 1px, rgb(255, 255, 255) 1px -1px 1px, rgb(255, 255, 255) -1px -1px 1px; font-family: 'Open Sans', verdana, arial, sans-serif; font-size: 12px; fill-opacity: 1;"><textPath class="node-label-text-path" alignment-baseline="middle" xlink:href="#620fc1_0_node_0" startOffset="0%" text-anchor="start" style="fill: rgb(0, 0, 0);">Asia</textPath></text></g></g><g class="sankey-node" transform="translate(0.000, 400.596)" style="opacity: 1;"><rect class="node-rect" width="30" height="1.829380967046518" style="stroke-width: 0.5; stroke: rgb(0, 0, 0); stroke-opacity: 1; fill: rgb(255, 127, 14); fill-opacity: 0.8;"/><rect class="node-capture" x="-10" y="-7.5" width="50" height="16.829380967046518" style="fill-opacity: 0;"/><g class="node-entered" transform="translate(0 1.914690483523259)"><path class="node-label-guide" id="620fc1_0_node_1" d="M34,0L630,0" transform="matrix(1 0 0 1 0 0)"/><text class="node-label" transform="scale(1 1)" style="cursor: default; fill: rgb(68, 68, 68); text-shadow: rgb(255, 255, 255) -1px 1px 1px, rgb(255, 255, 255) 1px 1px 1px, rgb(255, 255, 255) 1px -1px 1px, rgb(255, 255, 255) -1px -1px 1px; font-family: 'Open Sans', verdana, arial, sans-serif; font-size: 12px; fill-opacity: 1;"><textPath class="node-label-text-path" alignment-baseline="middle" xlink:href="#620fc1_0_node_1" startOffset="0%" text-anchor="start" style="fill: rgb(0, 0, 0);">Australia / Oceania</textPath></text></g></g><g class="sankey-node" transform="translate(0.000, 382.411)" style="opacity: 1;"><rect class="node-rect" width="30" height="3.184477979673602" style="stroke-width: 0.5; stroke: rgb(0, 0, 0); stroke-opacity: 1; fill: rgb(44, 160, 44); fill-opacity: 0.8;"/><rect class="node-capture" x="-10" y="-7.5" width="50" height="18.184477979673602" style="fill-opacity: 0;"/><g class="node-entered" transform="translate(0 2.592238989836801)"><path class="node-label-guide" id="620fc1_0_node_2" d="M34,0L630,0" transform="matrix(1 0 0 1 0 0)"/><text class="node-label" transform="scale(1 1)" style="cursor: default; fill: rgb(68, 68, 68); text-shadow: rgb(255, 255, 255) -1px 1px 1px, rgb(255, 255, 255) 1px 1px 1px, rgb(255, 255, 255) 1px -1px 1px, rgb(255, 255, 255) -1px -1px 1px; font-family: 'Open Sans', verdana, arial, sans-serif; font-size: 12px; fill-opacity: 1;"><textPath class="node-label-text-path" alignment-baseline="middle" xlink:href="#620fc1_0_node_2" startOffset="0%" text-anchor="start" style="fill: rgb(0, 0, 0);">Canada</textPath></text></g></g><g class="sankey-node" transform="translate(0.000, 433.408)" style="opacity: 1;"><rect class="node-rect" width="30" height="1.5922389898369147" style="stroke-width: 0.5; stroke: rgb(0, 0, 0); stroke-opacity: 1; fill: rgb(214, 39, 40); fill-opacity: 0.8;"/><rect class="node-capture" x="-10" y="-7.5" width="50" height="16.592238989836915" style="fill-opacity: 0;"/><g class="node-entered" transform="translate(0 1.7961194949184573)"><path class="node-label-guide" id="620fc1_0_node_3" d="M34,0L630,0" transform="matrix(1 0 0 1 0 0)"/><text class="node-label" transform="scale(1 1)" style="cursor: default; fill: rgb(68, 68, 68); text-shadow: rgb(255, 255, 255) -1px 1px 1px, rgb(255, 255, 255) 1px 1px 1px, rgb(255, 255, 255) 1px -1px 1px, rgb(255, 255, 255) -1px -1px 1px; font-family: 'Open Sans', verdana, arial, sans-serif; font-size: 12px; fill-opacity: 1;"><textPath class="node-label-text-path" alignment-baseline="middle" xlink:href="#620fc1_0_node_3" startOffset="0%" text-anchor="start" style="fill: rgb(0, 0, 0);">Central America</textPath></text></g></g><g class="sankey-node" transform="translate(0.000, 360.060)" style="opacity: 1;"><rect class="node-rect" width="30" height="7.351401293501681" style="stroke-width: 0.5; stroke: rgb(0, 0, 0); stroke-opacity: 1; fill: rgb(148, 103, 189); fill-opacity: 0.8;"/><rect class="node-capture" x="-10" y="-7.5" width="50" height="22.35140129350168" style="fill-opacity: 0;"/><g class="node-entered" transform="translate(0 4.67570064675084)"><path class="node-label-guide" id="620fc1_0_node_4" d="M34,0L630,0" transform="matrix(1 0 0 1 0 0)"/><text class="node-label" transform="scale(1 1)" style="cursor: default; fill: rgb(68, 68, 68); text-shadow: rgb(255, 255, 255) -1px 1px 1px, rgb(255, 255, 255) 1px 1px 1px, rgb(255, 255, 255) 1px -1px 1px, rgb(255, 255, 255) -1px -1px 1px; font-family: 'Open Sans', verdana, arial, sans-serif; font-size: 12px; fill-opacity: 1;"><textPath class="node-label-text-path" alignment-baseline="middle" xlink:href="#620fc1_0_node_4" startOffset="0%" text-anchor="start" style="fill: rgb(0, 0, 0);">Europe</textPath></text></g></g><g class="sankey-node" transform="translate(0.000, 334.456)" style="opacity: 1;"><rect class="node-rect" width="30" height="10.603634123806728" style="stroke-width: 0.5; stroke: rgb(0, 0, 0); stroke-opacity: 1; fill: rgb(140, 86, 75); fill-opacity: 0.8;"/><rect class="node-capture" x="-10" y="-7.5" width="50" height="25.603634123806728" style="fill-opacity: 0;"/><g class="node-entered" transform="translate(0 6.301817061903364)"><path class="node-label-guide" id="620fc1_0_node_5" d="M34,0L630,0" transform="matrix(1 0 0 1 0 0)"/><text class="node-label" transform="scale(1 1)" style="cursor: default; fill: rgb(68, 68, 68); text-shadow: rgb(255, 255, 255) -1px 1px 1px, rgb(255, 255, 255) 1px 1px 1px, rgb(255, 255, 255) 1px -1px 1px, rgb(255, 255, 255) -1px -1px 1px; font-family: 'Open Sans', verdana, arial, sans-serif; font-size: 12px; fill-opacity: 1;"><textPath class="node-label-text-path" alignment-baseline="middle" xlink:href="#620fc1_0_node_5" startOffset="0%" text-anchor="start" style="fill: rgb(0, 0, 0);">Mexico</textPath></text></g></g><g class="sankey-node" transform="translate(0.000, 417.425)" style="opacity: 1;"><rect class="node-rect" width="30" height="0.9824453341545905" style="stroke-width: 0.5; stroke: rgb(0, 0, 0); stroke-opacity: 1; fill: rgb(227, 119, 194); fill-opacity: 0.8;"/><rect class="node-capture" x="-10" y="-7.5" width="50" height="15.98244533415459" style="fill-opacity: 0;"/><g class="node-entered" transform="translate(0 1.4912226670772952)"><path class="node-label-guide" id="620fc1_0_node_6" d="M34,0L630,0" transform="matrix(1 0 0 1 0 0)"/><text class="node-label" transform="scale(1 1)" style="cursor: default; fill: rgb(68, 68, 68); text-shadow: rgb(255, 255, 255) -1px 1px 1px, rgb(255, 255, 255) 1px 1px 1px, rgb(255, 255, 255) 1px -1px 1px, rgb(255, 255, 255) -1px -1px 1px; font-family: 'Open Sans', verdana, arial, sans-serif; font-size: 12px; fill-opacity: 1;"><textPath class="node-label-text-path" alignment-baseline="middle" xlink:href="#620fc1_0_node_6" startOffset="0%" text-anchor="start" style="fill: rgb(0, 0, 0);">Middle East</textPath></text></g></g><g class="sankey-node" transform="translate(0.000, -0.000)" style="opacity: 1;"><rect class="node-rect" width="30" height="285.99322451493686" style="stroke-width: 0.5; stroke: rgb(0, 0, 0); stroke-opacity: 1; fill: rgb(127, 127, 127); fill-opacity: 0.8;"/><rect class="node-capture" x="-10" y="-7.5" width="50" height="300.99322451493686" style="fill-opacity: 0;"/><g class="node-entered" transform="translate(0 143.99661225746843)"><path class="node-label-guide" id="620fc1_0_node_7" d="M34,0L630,0" transform="matrix(1 0 0 1 0 0)"/><text class="node-label" transform="scale(1 1)" style="cursor: default; fill: rgb(68, 68, 68); text-shadow: rgb(255, 255, 255) -1px 1px 1px, rgb(255, 255, 255) 1px 1px 1px, rgb(255, 255, 255) 1px -1px 1px, rgb(255, 255, 255) -1px -1px 1px; font-family: 'Open Sans', verdana, arial, sans-serif; font-size: 12px; fill-opacity: 1;"><textPath class="node-label-text-path" alignment-baseline="middle" xlink:href="#620fc1_0_node_7" startOffset="0%" text-anchor="start" style="fill: rgb(0, 0, 0);">US</textPath></text></g></g><g class="sankey-node" transform="translate(200.000, 366.946)" style="opacity: 1;"><rect class="node-rect" width="30" height="8.706498306128537" style="stroke-width: 0.5; stroke: rgb(0, 0, 0); stroke-opacity: 1; fill: rgb(188, 189, 34); fill-opacity: 0.8;"/><rect class="node-capture" x="-10" y="-7.5" width="50" height="23.706498306128537" style="fill-opacity: 0;"/><g class="node-entered" transform="translate(0 5.353249153064269)"><path class="node-label-guide" id="620fc1_0_node_8" d="M34,0L630,0" transform="matrix(1 0 0 1 0 0)"/><text class="node-label" transform="scale(1 1)" style="cursor: default; fill: rgb(68, 68, 68); text-shadow: rgb(255, 255, 255) -1px 1px 1px, rgb(255, 255, 255) 1px 1px 1px, rgb(255, 255, 255) 1px -1px 1px, rgb(255, 255, 255) -1px -1px 1px; font-family: 'Open Sans', verdana, arial, sans-serif; font-size: 12px; fill-opacity: 1;"><textPath class="node-label-text-path" alignment-baseline="middle" xlink:href="#620fc1_0_node_8" startOffset="0%" text-anchor="start" style="fill: rgb(0, 0, 0);">Freighter</textPath></text></g></g><g class="sankey-node" transform="translate(200.000, 30.652)" style="opacity: 1;"><rect class="node-rect" width="30" height="321.2935016938713" style="stroke-width: 0.5; stroke: rgb(0, 0, 0); stroke-opacity: 1; fill: rgb(23, 190, 207); fill-opacity: 0.8;"/><rect class="node-capture" x="-10" y="-7.5" width="50" height="336.2935016938713" style="fill-opacity: 0;"/><g class="node-entered" transform="translate(0 161.64675084693565)"><path class="node-label-guide" id="620fc1_0_node_9" d="M34,0L630,0" transform="matrix(1 0 0 1 0 0)"/><text class="node-label" transform="scale(1 1)" style="cursor: default; fill: rgb(68, 68, 68); text-shadow: rgb(255, 255, 255) -1px 1px 1px, rgb(255, 255, 255) 1px 1px 1px, rgb(255, 255, 255) 1px -1px 1px, rgb(255, 255, 255) -1px -1px 1px; font-family: 'Open Sans', verdana, arial, sans-serif; font-size: 12px; fill-opacity: 1;"><textPath class="node-label-text-path" alignment-baseline="middle" xlink:href="#620fc1_0_node_9" startOffset="0%" text-anchor="start" style="fill: rgb(0, 0, 0);">Passenger</textPath></text></g></g><g class="sankey-node" transform="translate(400.000, 158.779)" style="opacity: 1;"><rect class="node-rect" width="30" height="129.51339698182966" style="stroke-width: 0.5; stroke: rgb(0, 0, 0); stroke-opacity: 1; fill: rgb(31, 119, 180); fill-opacity: 0.8;"/><rect class="node-capture" x="-10" y="-7.5" width="50" height="144.51339698182966" style="fill-opacity: 0;"/><g class="node-entered" transform="translate(0 65.75669849091483)"><path class="node-label-guide" id="620fc1_0_node_10" d="M34,0L630,0" transform="matrix(1 0 0 1 0 0)"/><text class="node-label" transform="scale(1 1)" style="cursor: default; fill: rgb(68, 68, 68); text-shadow: rgb(255, 255, 255) -1px 1px 1px, rgb(255, 255, 255) 1px 1px 1px, rgb(255, 255, 255) 1px -1px 1px, rgb(255, 255, 255) -1px -1px 1px; font-family: 'Open Sans', verdana, arial, sans-serif; font-size: 12px; fill-opacity: 1;"><textPath class="node-label-text-path" alignment-baseline="middle" xlink:href="#620fc1_0_node_10" startOffset="0%" text-anchor="start" style="fill: rgb(0, 0, 0);">Boeing</textPath></text></g></g><g class="sankey-node" transform="translate(400.000, 60.000)" style="opacity: 1;"><rect class="node-rect" width="30" height="83.77887280566691" style="stroke-width: 0.5; stroke: rgb(0, 0, 0); stroke-opacity: 1; fill: rgb(255, 127, 14); fill-opacity: 0.8;"/><rect class="node-capture" x="-10" y="-7.5" width="50" height="98.77887280566691" style="fill-opacity: 0;"/><g class="node-entered" transform="translate(0 42.889436402833454)"><path class="node-label-guide" id="620fc1_0_node_11" d="M34,0L630,0" transform="matrix(1 0 0 1 0 0)"/><text class="node-label" transform="scale(1 1)" style="cursor: default; fill: rgb(68, 68, 68); text-shadow: rgb(255, 255, 255) -1px 1px 1px, rgb(255, 255, 255) 1px 1px 1px, rgb(255, 255, 255) 1px -1px 1px, rgb(255, 255, 255) -1px -1px 1px; font-family: 'Open Sans', verdana, arial, sans-serif; font-size: 12px; fill-opacity: 1;"><textPath class="node-label-text-path" alignment-baseline="middle" xlink:href="#620fc1_0_node_11" startOffset="0%" text-anchor="start" style="fill: rgb(0, 0, 0);">Airbus</textPath></text></g></g><g class="sankey-node" transform="translate(400.000, 386.250)" style="opacity: 1;"><rect class="node-rect" width="30" height="48.7496150292576" style="stroke-width: 0.5; stroke: rgb(0, 0, 0); stroke-opacity: 1; fill: rgb(44, 160, 44); fill-opacity: 0.8;"/><rect class="node-capture" x="-10" y="-7.5" width="50" height="63.7496150292576" style="fill-opacity: 0;"/><g class="node-entered" transform="translate(0 25.3748075146288)"><path class="node-label-guide" id="620fc1_0_node_12" d="M34,0L630,0" transform="matrix(1 0 0 1 0 0)"/><text class="node-label" transform="scale(1 1)" style="cursor: default; fill: rgb(68, 68, 68); text-shadow: rgb(255, 255, 255) -1px 1px 1px, rgb(255, 255, 255) 1px 1px 1px, rgb(255, 255, 255) 1px -1px 1px, rgb(255, 255, 255) -1px -1px 1px; font-family: 'Open Sans', verdana, arial, sans-serif; font-size: 12px; fill-opacity: 1;"><textPath class="node-label-text-path" alignment-baseline="middle" xlink:href="#620fc1_0_node_12" startOffset="0%" text-anchor="start" style="fill: rgb(0, 0, 0);">Bombardier</textPath></text></g></g><g class="sankey-node" transform="translate(400.000, 303.292)" style="opacity: 1;"><rect class="node-rect" width="30" height="67.95811518324604" style="stroke-width: 0.5; stroke: rgb(0, 0, 0); stroke-opacity: 1; fill: rgb(214, 39, 40); fill-opacity: 0.8;"/><rect class="node-capture" x="-10" y="-7.5" width="50" height="82.95811518324604" style="fill-opacity: 0;"/><g class="node-entered" transform="translate(0 34.97905759162302)"><path class="node-label-guide" id="620fc1_0_node_13" d="M34,0L630,0" transform="matrix(1 0 0 1 0 0)"/><text class="node-label" transform="scale(1 1)" style="cursor: default; fill: rgb(68, 68, 68); text-shadow: rgb(255, 255, 255) -1px 1px 1px, rgb(255, 255, 255) 1px 1px 1px, rgb(255, 255, 255) 1px -1px 1px, rgb(255, 255, 255) -1px -1px 1px; font-family: 'Open Sans', verdana, arial, sans-serif; font-size: 12px; fill-opacity: 1;"><textPath class="node-label-text-path" alignment-baseline="middle" xlink:href="#620fc1_0_node_13" startOffset="0%" text-anchor="start" style="fill: rgb(0, 0, 0);">Embraer</textPath></text></g></g><g class="sankey-node" transform="translate(600.000, 379.577)" style="opacity: 1;"><rect class="node-rect" width="30" height="55.42346781644585" style="stroke-width: 0.5; stroke: rgb(0, 0, 0); stroke-opacity: 1; fill: rgb(148, 103, 189); fill-opacity: 0.8;"/><rect class="node-capture" x="-10" y="-7.5" width="50" height="70.42346781644585" style="fill-opacity: 0;"/><g class="node-entered" transform="translate(0 28.711733908222925)"><path class="node-label-guide" id="620fc1_0_node_14" d="M-630,0L-4,0" transform="matrix(1 0 0 1 0 0)"/><text class="node-label" transform="scale(1 1)" style="cursor: default; fill: rgb(68, 68, 68); text-shadow: rgb(255, 255, 255) -1px 1px 1px, rgb(255, 255, 255) 1px 1px 1px, rgb(255, 255, 255) 1px -1px 1px, rgb(255, 255, 255) -1px -1px 1px; font-family: 'Open Sans', verdana, arial, sans-serif; font-size: 12px; fill-opacity: 1;"><textPath class="node-label-text-path" alignment-baseline="middle" xlink:href="#620fc1_0_node_14" startOffset="100%" text-anchor="end" style="fill: rgb(0, 0, 0);">Wide Body</textPath></text></g></g><g class="sankey-node" transform="translate(600.000, 75.000)" style="opacity: 1;"><rect class="node-rect" width="30" height="163.35694487218962" style="stroke-width: 0.5; stroke: rgb(0, 0, 0); stroke-opacity: 1; fill: rgb(140, 86, 75); fill-opacity: 0.8;"/><rect class="node-capture" x="-10" y="-7.5" width="50" height="178.35694487218962" style="fill-opacity: 0;"/><g class="node-entered" transform="translate(0 82.67847243609481)"><path class="node-label-guide" id="620fc1_0_node_15" d="M-630,0L-4,0" transform="matrix(1 0 0 1 0 0)"/><text class="node-label" transform="scale(1 1)" style="cursor: default; fill: rgb(68, 68, 68); text-shadow: rgb(255, 255, 255) -1px 1px 1px, rgb(255, 255, 255) 1px 1px 1px, rgb(255, 255, 255) 1px -1px 1px, rgb(255, 255, 255) -1px -1px 1px; font-family: 'Open Sans', verdana, arial, sans-serif; font-size: 12px; fill-opacity: 1;"><textPath class="node-label-text-path" alignment-baseline="middle" xlink:href="#620fc1_0_node_15" startOffset="100%" text-anchor="end" style="fill: rgb(0, 0, 0);">Narrow Body</textPath></text></g></g><g class="sankey-node" transform="translate(600.000, 253.357)" style="opacity: 1;"><rect class="node-rect" width="30" height="111.21958731136425" style="stroke-width: 0.5; stroke: rgb(0, 0, 0); stroke-opacity: 1; fill: rgb(227, 119, 194); fill-opacity: 0.8;"/><rect class="node-capture" x="-10" y="-7.5" width="50" height="126.21958731136425" style="fill-opacity: 0;"/><g class="node-entered" transform="translate(0 56.609793655682125)"><path class="node-label-guide" id="620fc1_0_node_16" d="M-630,0L-4,0" transform="matrix(1 0 0 1 0 0)"/><text class="node-label" transform="scale(1 1)" style="cursor: default; fill: rgb(68, 68, 68); text-shadow: rgb(255, 255, 255) -1px 1px 1px, rgb(255, 255, 255) 1px 1px 1px, rgb(255, 255, 255) 1px -1px 1px, rgb(255, 255, 255) -1px -1px 1px; font-family: 'Open Sans', verdana, arial, sans-serif; font-size: 12px; fill-opacity: 1;"><textPath class="node-label-text-path" alignment-baseline="middle" xlink:href="#620fc1_0_node_16" startOffset="100%" text-anchor="end" style="fill: rgb(0, 0, 0);">Regional Jet</textPath></text></g></g></g></g><defs id="topdefs-c5b80c"><g class="clips"/></defs><g class="layer-above"><g class="imagelayer"/><g class="shapelayer"/></g><g class="infolayer"><g class="g-gtitle"><text class="gtitle" x="350" y="12.5" text-anchor="middle" dy="0em" style="font-family: 'Open Sans', verdana, arial, sans-serif; font-size: 17px; fill: rgb(68, 68, 68); opacity: 1; font-weight: normal; white-space: pre;">Landing Summary by Geo Region and Aircraft Type During Sep 2020</text></g><g class="first-render"/></g></svg>