<svg class="main-svg" xmlns="http://www.w3.org/2000/svg" xmlns:xlink="http://www.w3.org/1999/xlink" width="700" height="500" style="" viewBox="0 0 700 500"><rect x="0" y="0" width="700" height="500" style="fill: rgb(255, 255, 255); fill-opacity: 1;"/><defs id="defs-cc3dfb"><g class="clips"/><g class="gradients"/></defs><g class="bglayer"/><g class="layer-below"><g class="imagelayer"/><g class="shapelayer"/></g><g class="cartesianlayer"/><g class="polarlayer"/><g class="ternarylayer"/><g class="geolayer"/><g class="funnelarealayer"/><g class="pielayer"/><g class="treemaplayer"/><g class="sunburstlayer"/><g class="glimages"/><g class="sankey" transform="translate(60,25)matrix(1 0 0 1 0 0)" style="box-sizing: content-box; position: absolute; left: 0px; shape-rendering: geometricprecision; pointer-events: auto;"><g class="sankey-links" style="fill: none;"><path class="sankey-link" d="M30,319.30252100840346C115,319.30252100840346 115,372.91775406135355 200,372.91775406135355L200,375.5984263302611C115,375.5984263302611 115,321.983193277311 30,321.983193277311Z" style="stroke: rgb(68, 68, 68); stroke-opacity: 1; fill: rgb(0, 0, 0); fill-opacity: 0.2; stroke-width: 0; opacity: 1;"/><path class="sankey-link" d="M30,303.310924369748C115,303.310924369748 115,309.48077927143765 200,309.48077927143765L200,325.4723759100931C115,325.4723759100931 115,319.30252100840346 30,319.30252100840346Z" style="stroke: rgb(68, 68, 68); stroke-opacity: 1; fill: rgb(0, 0, 0); fill-opacity: 0.2; stroke-width: 0; opacity: 1;"/><path class="sankey-link" d="M30,400.65546218487395C115,400.65546218487395 115,344.1446448176561 200,344.1446448176561L200,347.564812884883C115,347.564812884883 115,404.07563025210084 30,404.07563025210084Z" style="stroke: rgb(68, 68, 68); stroke-opacity: 1; fill: rgb(0, 0, 0); fill-opacity: 0.2; stroke-width: 0; opacity: 1;"/><path class="sankey-link" d="M30,381.40336134453787C115,381.40336134453787 115,339.89254397732 200,339.89254397732L200,344.14464481765606C115,344.14464481765606 115,385.65546218487395 30,385.65546218487395Z" style="stroke: rgb(68, 68, 68); stroke-opacity: 1; fill: rgb(0, 0, 0); fill-opacity: 0.2; stroke-width: 0; opacity: 1;"/><path class="sankey-link" d="M30,419.07563025210084C115,419.07563025210084 115,347.564812884883 200,347.564812884883L200,347.9345607840426C115,347.9345607840426 115,419.44537815126046 30,419.44537815126046Z" style="stroke: rgb(0, 0, 0); stroke-opacity: 0.2; fill: rgb(0, 0, 0); fill-opacity: 0.2; stroke-width: 1; opacity: 1;"/><path class="sankey-link" d="M30,336.983193277311C115,336.983193277311 115,325.4723759100931 200,325.4723759100931L200,333.5606112042108C115,333.5606112042108 115,345.07142857142867 30,345.07142857142867Z" style="stroke: rgb(68, 68, 68); stroke-opacity: 1; fill: rgb(0, 0, 0); fill-opacity: 0.2; stroke-width: 0; opacity: 1;"/><path class="sankey-link" d="M30,360.07142857142867C115,360.07142857142867 115,333.5606112042107 200,333.5606112042107L200,339.8925439773199C115,339.8925439773199 115,366.40336134453787 30,366.40336134453787Z" style="stroke: rgb(68, 68, 68); stroke-opacity: 1; fill: rgb(0, 0, 0); fill-opacity: 0.2; stroke-width: 0; opacity: 1;"/><path class="sankey-link" d="M30,434.44537815126046C115,434.44537815126046 115,347.9345607840427 200,347.9345607840427L200,348.4891826327822C115,348.4891826327822 115,435 30,435Z" style="stroke: rgb(0, 0, 0); stroke-opacity: 0.2; fill: rgb(0, 0, 0); fill-opacity: 0.2; stroke-width: 1; opacity: 1;"/><path class="sankey-link" d="M30,278.88235294117646C115,278.88235294117646 115,363.4891826327821 200,363.4891826327821L200,372.91775406135355C115,372.91775406135355 115,288.3109243697479 30,288.3109243697479Z" style="stroke: rgb(68, 68, 68); stroke-opacity: 1; fill: rgb(0, 0, 0); fill-opacity: 0.2; stroke-width: 0; opacity: 1;"/><path class="sankey-link" d="M30,2.842170943040401e-14C115,2.842170943040401e-14 115,30.59842633026119 200,30.59842633026119L200,309.48077927143765C115,309.48077927143765 115,278.88235294117646 30,278.88235294117646Z" style="stroke: rgb(68, 68, 68); stroke-opacity: 1; fill: rgb(0, 0, 0); fill-opacity: 0.2; stroke-width: 0; opacity: 1;"/><path class="sankey-link" d="M230,375.5059893554712C315,375.5059893554712 315,434.90756302521015 400,434.90756302521015L400,435.0000000000001C315,435.0000000000001 315,375.59842633026113 230,375.59842633026113Z" style="stroke: rgb(0, 0, 0); stroke-opacity: 0.2; fill: rgb(0, 0, 0); fill-opacity: 0.2; stroke-width: 1; opacity: 1;"/><path class="sankey-link" d="M230,363.4891826327821C315,363.4891826327821 315,178.6176470588237 400,178.6176470588237L400,190.63445378151278C315,190.63445378151278 315,375.50598935547123 230,375.50598935547123Z" style="stroke: rgb(68, 68, 68); stroke-opacity: 1; fill: rgb(0, 0, 0); fill-opacity: 0.2; stroke-width: 0; opacity: 1;"/><path class="sankey-link" d="M230,164.21607338908473C315,164.21607338908473 315,205.63445378151272 400,205.63445378151272L400,264.97899159663876C315,264.97899159663876 315,223.56061120421077 230,223.56061120421077Z" style="stroke: rgb(68, 68, 68); stroke-opacity: 1; fill: rgb(0, 0, 0); fill-opacity: 0.2; stroke-width: 0; opacity: 1;"/><path class="sankey-link" d="M230,30.59842633026119C315,30.59842633026119 315,45.00000000000017 400,45.00000000000017L400,178.6176470588237C315,178.6176470588237 315,164.21607338908473 230,164.21607338908473Z" style="stroke: rgb(68, 68, 68); stroke-opacity: 1; fill: rgb(0, 0, 0); fill-opacity: 0.2; stroke-width: 0; opacity: 1;"/><path class="sankey-link" d="M230,311.5606112042108C315,311.5606112042108 315,382.97899159663876 400,382.97899159663876L400,419.9075630252102C315,419.9075630252102 315,348.4891826327822 230,348.4891826327822Z" style="stroke: rgb(68, 68, 68); stroke-opacity: 1; fill: rgb(0, 0, 0); fill-opacity: 0.2; stroke-width: 0; opacity: 1;"/><path class="sankey-link" d="M230,223.56061120421077C315,223.56061120421077 315,279.97899159663865 400,279.97899159663865L400,367.97899159663865C315,367.97899159663865 315,311.5606112042108 230,311.5606112042108Z" style="stroke: rgb(68, 68, 68); stroke-opacity: 1; fill: rgb(0, 0, 0); fill-opacity: 0.2; stroke-width: 0; opacity: 1;"/><path class="sankey-link" d="M430,434.90756302521015C515,434.90756302521015 515,434.9075630252099 600,434.9075630252099L600,434.9999999999999C515,434.9999999999999 515,435.0000000000001 430,435.0000000000001Z" style="stroke: rgb(0, 0, 0); stroke-opacity: 0.2; fill: rgb(0, 0, 0); fill-opacity: 0.2; stroke-width: 1; opacity: 1;"/><path class="sankey-link" d="M430,205.63445378151272C515,205.63445378151272 515,173.63025210083993 600,173.63025210083993L600,229.0924369747895C515,229.0924369747895 515,261.0966386554623 430,261.0966386554623Z" style="stroke: rgb(68, 68, 68); stroke-opacity: 1; fill: rgb(0, 0, 0); fill-opacity: 0.2; stroke-width: 0; opacity: 1;"/><path class="sankey-link" d="M430,261.0966386554623C515,261.0966386554623 515,431.02521008403346 600,431.02521008403346L600,434.9075630252099C515,434.9075630252099 515,264.97899159663876 430,264.97899159663876Z" style="stroke: rgb(68, 68, 68); stroke-opacity: 1; fill: rgb(0, 0, 0); fill-opacity: 0.2; stroke-width: 0; opacity: 1;"/><path class="sankey-link" d="M430,45.00000000000016C515,45.00000000000016 515,74.9999999999996 600,74.9999999999996L600,173.63025210083993C515,173.63025210083993 515,143.6302521008405 430,143.6302521008405Z" style="stroke: rgb(68, 68, 68); stroke-opacity: 1; fill: rgb(0, 0, 0); fill-opacity: 0.2; stroke-width: 0; opacity: 1;"/><path class="sankey-link" d="M430,143.6302521008405C515,143.6302521008405 515,384.0210084033612 600,384.0210084033612L600,431.02521008403346C515,431.02521008403346 515,190.63445378151278 430,190.63445378151278Z" style="stroke: rgb(68, 68, 68); stroke-opacity: 1; fill: rgb(0, 0, 0); fill-opacity: 0.2; stroke-width: 0; opacity: 1;"/><path class="sankey-link" d="M430,382.97899159663876C515,382.97899159663876 515,229.0924369747895 600,229.0924369747895L600,238.93697478991555C515,238.93697478991555 515,392.8235294117648 430,392.8235294117648Z" style="stroke: rgb(68, 68, 68); stroke-opacity: 1; fill: rgb(0, 0, 0); fill-opacity: 0.2; stroke-width: 0; opacity: 1;"/><path class="sankey-link" d="M430,392.8235294117648C515,392.8235294117648 515,341.93697478991544 600,341.93697478991544L600,369.02100840336084C515,369.02100840336084 515,419.9075630252102 430,419.9075630252102Z" style="stroke: rgb(68, 68, 68); stroke-opacity: 1; fill: rgb(0, 0, 0); fill-opacity: 0.2; stroke-width: 0; opacity: 1;"/><path class="sankey-link" d="M430,279.97899159663865C515,279.97899159663865 515,253.93697478991544 600,253.93697478991544L600,341.93697478991544C515,341.93697478991544 515,367.97899159663865 430,367.97899159663865Z" style="stroke: rgb(68, 68, 68); stroke-opacity: 1; fill: rgb(0, 0, 0); fill-opacity: 0.2; stroke-width: 0; opacity: 1;"/></g><g class="sankey-node-set" style="cursor: move;"><g class="sankey-node" transform="translate(0.000, 303.311)" style="opacity: 1;"><rect class="node-rect" width="30" height="18.672268907562966" style="stroke-width: 0.5; stroke: rgb(0, 0, 0); stroke-opacity: 1; fill: rgb(31, 119, 180); fill-opacity: 0.8;"/><rect class="node-capture" x="-10" y="-7.5" width="50" height="33.672268907562966" style="fill-opacity: 0;"/><g class="node-entered" transform="translate(0 10.336134453781483)"><path class="node-label-guide" id="b1f3a3_0_node_0" d="M34,0L630,0" transform="matrix(1 0 0 1 0 0)"/><text class="node-label" transform="scale(1 1)" style="user-select: none; cursor: default; fill: rgb(68, 68, 68); text-shadow: rgb(255, 255, 255) -1px 1px 1px, rgb(255, 255, 255) 1px 1px 1px, rgb(255, 255, 255) 1px -1px 1px, rgb(255, 255, 255) -1px -1px 1px; font-family: 'Open Sans', verdana, arial, sans-serif; font-size: 12px; fill-opacity: 1;"><textPath class="node-label-text-path" alignment-baseline="middle" xlink:href="#b1f3a3_0_node_0" startOffset="0%" text-anchor="start" style="fill: rgb(0, 0, 0);">Asia</textPath></text></g></g><g class="sankey-node" transform="translate(0.000, 400.655)" style="opacity: 1;"><rect class="node-rect" width="30" height="3.420168067226882" style="stroke-width: 0.5; stroke: rgb(0, 0, 0); stroke-opacity: 1; fill: rgb(255, 127, 14); fill-opacity: 0.8;"/><rect class="node-capture" x="-10" y="-7.5" width="50" height="18.420168067226882" style="fill-opacity: 0;"/><g class="node-entered" transform="translate(0 2.710084033613441)"><path class="node-label-guide" id="b1f3a3_0_node_1" d="M34,0L630,0" transform="matrix(1 0 0 1 0 0)"/><text class="node-label" transform="scale(1 1)" style="user-select: none; cursor: default; fill: rgb(68, 68, 68); text-shadow: rgb(255, 255, 255) -1px 1px 1px, rgb(255, 255, 255) 1px 1px 1px, rgb(255, 255, 255) 1px -1px 1px, rgb(255, 255, 255) -1px -1px 1px; font-family: 'Open Sans', verdana, arial, sans-serif; font-size: 12px; fill-opacity: 1;"><textPath class="node-label-text-path" alignment-baseline="middle" xlink:href="#b1f3a3_0_node_1" startOffset="0%" text-anchor="start" style="fill: rgb(0, 0, 0);">Australia / Oceania</textPath></text></g></g><g class="sankey-node" transform="translate(0.000, 381.403)" style="opacity: 1;"><rect class="node-rect" width="30" height="4.252100840336084" style="stroke-width: 0.5; stroke: rgb(0, 0, 0); stroke-opacity: 1; fill: rgb(44, 160, 44); fill-opacity: 0.8;"/><rect class="node-capture" x="-10" y="-7.5" width="50" height="19.252100840336084" style="fill-opacity: 0;"/><g class="node-entered" transform="translate(0 3.126050420168042)"><path class="node-label-guide" id="b1f3a3_0_node_2" d="M34,0L630,0" transform="matrix(1 0 0 1 0 0)"/><text class="node-label" transform="scale(1 1)" style="user-select: none; cursor: default; fill: rgb(68, 68, 68); text-shadow: rgb(255, 255, 255) -1px 1px 1px, rgb(255, 255, 255) 1px 1px 1px, rgb(255, 255, 255) 1px -1px 1px, rgb(255, 255, 255) -1px -1px 1px; font-family: 'Open Sans', verdana, arial, sans-serif; font-size: 12px; fill-opacity: 1;"><textPath class="node-label-text-path" alignment-baseline="middle" xlink:href="#b1f3a3_0_node_2" startOffset="0%" text-anchor="start" style="fill: rgb(0, 0, 0);">Canada</textPath></text></g></g><g class="sankey-node" transform="translate(0.000, 419.076)" style="opacity: 1;"><rect class="node-rect" width="30" height="0.5" style="stroke-width: 0.5; stroke: rgb(0, 0, 0); stroke-opacity: 1; fill: rgb(214, 39, 40); fill-opacity: 0.8;"/><rect class="node-capture" x="-10" y="-7.5" width="50" height="15.5" style="fill-opacity: 0;"/><g class="node-entered" transform="translate(0 1.18487394957981)"><path class="node-label-guide" id="b1f3a3_0_node_3" d="M34,0L630,0" transform="matrix(1 0 0 1 0 0)"/><text class="node-label" transform="scale(1 1)" style="user-select: none; cursor: default; fill: rgb(68, 68, 68); text-shadow: rgb(255, 255, 255) -1px 1px 1px, rgb(255, 255, 255) 1px 1px 1px, rgb(255, 255, 255) 1px -1px 1px, rgb(255, 255, 255) -1px -1px 1px; font-family: 'Open Sans', verdana, arial, sans-serif; font-size: 12px; fill-opacity: 1;"><textPath class="node-label-text-path" alignment-baseline="middle" xlink:href="#b1f3a3_0_node_3" startOffset="0%" text-anchor="start" style="fill: rgb(0, 0, 0);">Central America</textPath></text></g></g><g class="sankey-node" transform="translate(0.000, 336.983)" style="opacity: 1;"><rect class="node-rect" width="30" height="8.08823529411768" style="stroke-width: 0.5; stroke: rgb(0, 0, 0); stroke-opacity: 1; fill: rgb(148, 103, 189); fill-opacity: 0.8;"/><rect class="node-capture" x="-10" y="-7.5" width="50" height="23.08823529411768" style="fill-opacity: 0;"/><g class="node-entered" transform="translate(0 5.04411764705884)"><path class="node-label-guide" id="b1f3a3_0_node_4" d="M34,0L630,0" transform="matrix(1 0 0 1 0 0)"/><text class="node-label" transform="scale(1 1)" style="user-select: none; cursor: default; fill: rgb(68, 68, 68); text-shadow: rgb(255, 255, 255) -1px 1px 1px, rgb(255, 255, 255) 1px 1px 1px, rgb(255, 255, 255) 1px -1px 1px, rgb(255, 255, 255) -1px -1px 1px; font-family: 'Open Sans', verdana, arial, sans-serif; font-size: 12px; fill-opacity: 1;"><textPath class="node-label-text-path" alignment-baseline="middle" xlink:href="#b1f3a3_0_node_4" startOffset="0%" text-anchor="start" style="fill: rgb(0, 0, 0);">Europe</textPath></text></g></g><g class="sankey-node" transform="translate(0.000, 360.071)" style="opacity: 1;"><rect class="node-rect" width="30" height="6.331932773109202" style="stroke-width: 0.5; stroke: rgb(0, 0, 0); stroke-opacity: 1; fill: rgb(140, 86, 75); fill-opacity: 0.8;"/><rect class="node-capture" x="-10" y="-7.5" width="50" height="21.3319327731092" style="fill-opacity: 0;"/><g class="node-entered" transform="translate(0 4.165966386554601)"><path class="node-label-guide" id="b1f3a3_0_node_5" d="M34,0L630,0" transform="matrix(1 0 0 1 0 0)"/><text class="node-label" transform="scale(1 1)" style="user-select: none; cursor: default; fill: rgb(68, 68, 68); text-shadow: rgb(255, 255, 255) -1px 1px 1px, rgb(255, 255, 255) 1px 1px 1px, rgb(255, 255, 255) 1px -1px 1px, rgb(255, 255, 255) -1px -1px 1px; font-family: 'Open Sans', verdana, arial, sans-serif; font-size: 12px; fill-opacity: 1;"><textPath class="node-label-text-path" alignment-baseline="middle" xlink:href="#b1f3a3_0_node_5" startOffset="0%" text-anchor="start" style="fill: rgb(0, 0, 0);">Mexico</textPath></text></g></g><g class="sankey-node" transform="translate(0.000, 434.445)" style="opacity: 1;"><rect class="node-rect" width="30" height="0.5546218487395436" style="stroke-width: 0.5; stroke: rgb(0, 0, 0); stroke-opacity: 1; fill: rgb(227, 119, 194); fill-opacity: 0.8;"/><rect class="node-capture" x="-10" y="-7.5" width="50" height="15.554621848739544" style="fill-opacity: 0;"/><g class="node-entered" transform="translate(0 1.2773109243697718)"><path class="node-label-guide" id="b1f3a3_0_node_6" d="M34,0L630,0" transform="matrix(1 0 0 1 0 0)"/><text class="node-label" transform="scale(1 1)" style="user-select: none; cursor: default; fill: rgb(68, 68, 68); text-shadow: rgb(255, 255, 255) -1px 1px 1px, rgb(255, 255, 255) 1px 1px 1px, rgb(255, 255, 255) 1px -1px 1px, rgb(255, 255, 255) -1px -1px 1px; font-family: 'Open Sans', verdana, arial, sans-serif; font-size: 12px; fill-opacity: 1;"><textPath class="node-label-text-path" alignment-baseline="middle" xlink:href="#b1f3a3_0_node_6" startOffset="0%" text-anchor="start" style="fill: rgb(0, 0, 0);">Middle East</textPath></text></g></g><g class="sankey-node" transform="translate(0.000, 0.000)" style="opacity: 1;"><rect class="node-rect" width="30" height="288.310924369748" style="stroke-width: 0.5; stroke: rgb(0, 0, 0); stroke-opacity: 1; fill: rgb(127, 127, 127); fill-opacity: 0.8;"/><rect class="node-capture" x="-10" y="-7.5" width="50" height="303.310924369748" style="fill-opacity: 0;"/><g class="node-entered" transform="translate(0 145.155462184874)"><path class="node-label-guide" id="b1f3a3_0_node_7" d="M34,0L630,0" transform="matrix(1 0 0 1 0 0)"/><text class="node-label" transform="scale(1 1)" style="user-select: none; cursor: default; fill: rgb(68, 68, 68); text-shadow: rgb(255, 255, 255) -1px 1px 1px, rgb(255, 255, 255) 1px 1px 1px, rgb(255, 255, 255) 1px -1px 1px, rgb(255, 255, 255) -1px -1px 1px; font-family: 'Open Sans', verdana, arial, sans-serif; font-size: 12px; fill-opacity: 1;"><textPath class="node-label-text-path" alignment-baseline="middle" xlink:href="#b1f3a3_0_node_7" startOffset="0%" text-anchor="start" style="fill: rgb(0, 0, 0);">US</textPath></text></g></g><g class="sankey-node" transform="translate(200.000, 363.489)" style="opacity: 1;"><rect class="node-rect" width="30" height="12.10924369747886" style="stroke-width: 0.5; stroke: rgb(0, 0, 0); stroke-opacity: 1; fill: rgb(188, 189, 34); fill-opacity: 0.8;"/><rect class="node-capture" x="-10" y="-7.5" width="50" height="27.10924369747886" style="fill-opacity: 0;"/><g class="node-entered" transform="translate(0 7.05462184873943)"><path class="node-label-guide" id="b1f3a3_0_node_8" d="M34,0L630,0" transform="matrix(1 0 0 1 0 0)"/><text class="node-label" transform="scale(1 1)" style="user-select: none; cursor: default; fill: rgb(68, 68, 68); text-shadow: rgb(255, 255, 255) -1px 1px 1px, rgb(255, 255, 255) 1px 1px 1px, rgb(255, 255, 255) 1px -1px 1px, rgb(255, 255, 255) -1px -1px 1px; font-family: 'Open Sans', verdana, arial, sans-serif; font-size: 12px; fill-opacity: 1;"><textPath class="node-label-text-path" alignment-baseline="middle" xlink:href="#b1f3a3_0_node_8" startOffset="0%" text-anchor="start" style="fill: rgb(0, 0, 0);">Freighter</textPath></text></g></g><g class="sankey-node" transform="translate(200.000, 30.598)" style="opacity: 1;"><rect class="node-rect" width="30" height="317.8907563025209" style="stroke-width: 0.5; stroke: rgb(0, 0, 0); stroke-opacity: 1; fill: rgb(23, 190, 207); fill-opacity: 0.8;"/><rect class="node-capture" x="-10" y="-7.5" width="50" height="332.8907563025209" style="fill-opacity: 0;"/><g class="node-entered" transform="translate(0 159.94537815126046)"><path class="node-label-guide" id="b1f3a3_0_node_9" d="M34,0L630,0" transform="matrix(1 0 0 1 0 0)"/><text class="node-label" transform="scale(1 1)" style="user-select: none; cursor: default; fill: rgb(68, 68, 68); text-shadow: rgb(255, 255, 255) -1px 1px 1px, rgb(255, 255, 255) 1px 1px 1px, rgb(255, 255, 255) 1px -1px 1px, rgb(255, 255, 255) -1px -1px 1px; font-family: 'Open Sans', verdana, arial, sans-serif; font-size: 12px; fill-opacity: 1;"><textPath class="node-label-text-path" alignment-baseline="middle" xlink:href="#b1f3a3_0_node_9" startOffset="0%" text-anchor="start" style="fill: rgb(0, 0, 0);">Passenger</textPath></text></g></g><g class="sankey-node" transform="translate(400.000, 45.000)" style="opacity: 1;"><rect class="node-rect" width="30" height="145.63445378151255" style="stroke-width: 0.5; stroke: rgb(0, 0, 0); stroke-opacity: 1; fill: rgb(31, 119, 180); fill-opacity: 0.8;"/><rect class="node-capture" x="-10" y="-7.5" width="50" height="160.63445378151255" style="fill-opacity: 0;"/><g class="node-entered" transform="translate(0 73.81722689075627)"><path class="node-label-guide" id="b1f3a3_0_node_10" d="M34,0L630,0" transform="matrix(1 0 0 1 0 0)"/><text class="node-label" transform="scale(1 1)" style="user-select: none; cursor: default; fill: rgb(68, 68, 68); text-shadow: rgb(255, 255, 255) -1px 1px 1px, rgb(255, 255, 255) 1px 1px 1px, rgb(255, 255, 255) 1px -1px 1px, rgb(255, 255, 255) -1px -1px 1px; font-family: 'Open Sans', verdana, arial, sans-serif; font-size: 12px; fill-opacity: 1;"><textPath class="node-label-text-path" alignment-baseline="middle" xlink:href="#b1f3a3_0_node_10" startOffset="0%" text-anchor="start" style="fill: rgb(0, 0, 0);">Boeing</textPath></text></g></g><g class="sankey-node" transform="translate(400.000, 205.634)" style="opacity: 1;"><rect class="node-rect" width="30" height="59.34453781512593" style="stroke-width: 0.5; stroke: rgb(0, 0, 0); stroke-opacity: 1; fill: rgb(255, 127, 14); fill-opacity: 0.8;"/><rect class="node-capture" x="-10" y="-7.5" width="50" height="74.34453781512593" style="fill-opacity: 0;"/><g class="node-entered" transform="translate(0 30.672268907562966)"><path class="node-label-guide" id="b1f3a3_0_node_11" d="M34,0L630,0" transform="matrix(1 0 0 1 0 0)"/><text class="node-label" transform="scale(1 1)" style="user-select: none; cursor: default; fill: rgb(68, 68, 68); text-shadow: rgb(255, 255, 255) -1px 1px 1px, rgb(255, 255, 255) 1px 1px 1px, rgb(255, 255, 255) 1px -1px 1px, rgb(255, 255, 255) -1px -1px 1px; font-family: 'Open Sans', verdana, arial, sans-serif; font-size: 12px; fill-opacity: 1;"><textPath class="node-label-text-path" alignment-baseline="middle" xlink:href="#b1f3a3_0_node_11" startOffset="0%" text-anchor="start" style="fill: rgb(0, 0, 0);">Airbus</textPath></text></g></g><g class="sankey-node" transform="translate(400.000, 382.979)" style="opacity: 1;"><rect class="node-rect" width="30" height="36.92857142857139" style="stroke-width: 0.5; stroke: rgb(0, 0, 0); stroke-opacity: 1; fill: rgb(44, 160, 44); fill-opacity: 0.8;"/><rect class="node-capture" x="-10" y="-7.5" width="50" height="51.92857142857139" style="fill-opacity: 0;"/><g class="node-entered" transform="translate(0 19.464285714285694)"><path class="node-label-guide" id="b1f3a3_0_node_12" d="M34,0L630,0" transform="matrix(1 0 0 1 0 0)"/><text class="node-label" transform="scale(1 1)" style="user-select: none; cursor: default; fill: rgb(68, 68, 68); text-shadow: rgb(255, 255, 255) -1px 1px 1px, rgb(255, 255, 255) 1px 1px 1px, rgb(255, 255, 255) 1px -1px 1px, rgb(255, 255, 255) -1px -1px 1px; font-family: 'Open Sans', verdana, arial, sans-serif; font-size: 12px; fill-opacity: 1;"><textPath class="node-label-text-path" alignment-baseline="middle" xlink:href="#b1f3a3_0_node_12" startOffset="0%" text-anchor="start" style="fill: rgb(0, 0, 0);">Bombardier</textPath></text></g></g><g class="sankey-node" transform="translate(400.000, 279.979)" style="opacity: 1;"><rect class="node-rect" width="30" height="88.00000000000011" style="stroke-width: 0.5; stroke: rgb(0, 0, 0); stroke-opacity: 1; fill: rgb(214, 39, 40); fill-opacity: 0.8;"/><rect class="node-capture" x="-10" y="-7.5" width="50" height="103.00000000000011" style="fill-opacity: 0;"/><g class="node-entered" transform="translate(0 45.00000000000006)"><path class="node-label-guide" id="b1f3a3_0_node_13" d="M34,0L630,0" transform="matrix(1 0 0 1 0 0)"/><text class="node-label" transform="scale(1 1)" style="user-select: none; cursor: default; fill: rgb(68, 68, 68); text-shadow: rgb(255, 255, 255) -1px 1px 1px, rgb(255, 255, 255) 1px 1px 1px, rgb(255, 255, 255) 1px -1px 1px, rgb(255, 255, 255) -1px -1px 1px; font-family: 'Open Sans', verdana, arial, sans-serif; font-size: 12px; fill-opacity: 1;"><textPath class="node-label-text-path" alignment-baseline="middle" xlink:href="#b1f3a3_0_node_13" startOffset="0%" text-anchor="start" style="fill: rgb(0, 0, 0);">Embraer</textPath></text></g></g><g class="sankey-node" transform="translate(400.000, 434.908)" style="opacity: 1;"><rect class="node-rect" width="30" height="0.5" style="stroke-width: 0.5; stroke: rgb(0, 0, 0); stroke-opacity: 1; fill: rgb(148, 103, 189); fill-opacity: 0.8;"/><rect class="node-capture" x="-10" y="-7.5" width="50" height="15.5" style="fill-opacity: 0;"/><g class="node-entered" transform="translate(0 1.046218487394924)"><path class="node-label-guide" id="b1f3a3_0_node_14" d="M34,0L630,0" transform="matrix(1 0 0 1 0 0)"/><text class="node-label" transform="scale(1 1)" style="user-select: none; cursor: default; fill: rgb(68, 68, 68); text-shadow: rgb(255, 255, 255) -1px 1px 1px, rgb(255, 255, 255) 1px 1px 1px, rgb(255, 255, 255) 1px -1px 1px, rgb(255, 255, 255) -1px -1px 1px; font-family: 'Open Sans', verdana, arial, sans-serif; font-size: 12px; fill-opacity: 1;"><textPath class="node-label-text-path" alignment-baseline="middle" xlink:href="#b1f3a3_0_node_14" startOffset="0%" text-anchor="start" style="fill: rgb(0, 0, 0);"/></text></g></g><g class="sankey-node" transform="translate(600.000, 384.021)" style="opacity: 1;"><rect class="node-rect" width="30" height="50.97899159663882" style="stroke-width: 0.5; stroke: rgb(0, 0, 0); stroke-opacity: 1; fill: rgb(140, 86, 75); fill-opacity: 0.8;"/><rect class="node-capture" x="-10" y="-7.5" width="50" height="65.97899159663882" style="fill-opacity: 0;"/><g class="node-entered" transform="translate(0 26.48949579831941)"><path class="node-label-guide" id="b1f3a3_0_node_15" d="M-630,0L-4,0" transform="matrix(1 0 0 1 0 0)"/><text class="node-label" transform="scale(1 1)" style="user-select: none; cursor: default; fill: rgb(68, 68, 68); text-shadow: rgb(255, 255, 255) -1px 1px 1px, rgb(255, 255, 255) 1px 1px 1px, rgb(255, 255, 255) 1px -1px 1px, rgb(255, 255, 255) -1px -1px 1px; font-family: 'Open Sans', verdana, arial, sans-serif; font-size: 12px; fill-opacity: 1;"><textPath class="node-label-text-path" alignment-baseline="middle" xlink:href="#b1f3a3_0_node_15" startOffset="100%" text-anchor="end" style="fill: rgb(0, 0, 0);">Wide Body</textPath></text></g></g><g class="sankey-node" transform="translate(600.000, 75.000)" style="opacity: 1;"><rect class="node-rect" width="30" height="163.93697478991584" style="stroke-width: 0.5; stroke: rgb(0, 0, 0); stroke-opacity: 1; fill: rgb(227, 119, 194); fill-opacity: 0.8;"/><rect class="node-capture" x="-10" y="-7.5" width="50" height="178.93697478991584" style="fill-opacity: 0;"/><g class="node-entered" transform="translate(0 82.96848739495792)"><path class="node-label-guide" id="b1f3a3_0_node_16" d="M-630,0L-4,0" transform="matrix(1 0 0 1 0 0)"/><text class="node-label" transform="scale(1 1)" style="user-select: none; cursor: default; fill: rgb(68, 68, 68); text-shadow: rgb(255, 255, 255) -1px 1px 1px, rgb(255, 255, 255) 1px 1px 1px, rgb(255, 255, 255) 1px -1px 1px, rgb(255, 255, 255) -1px -1px 1px; font-family: 'Open Sans', verdana, arial, sans-serif; font-size: 12px; fill-opacity: 1;"><textPath class="node-label-text-path" alignment-baseline="middle" xlink:href="#b1f3a3_0_node_16" startOffset="100%" text-anchor="end" style="fill: rgb(0, 0, 0);">Narrow Body</textPath></text></g></g><g class="sankey-node" transform="translate(600.000, 253.937)" style="opacity: 1;"><rect class="node-rect" width="30" height="115.08403361344574" style="stroke-width: 0.5; stroke: rgb(0, 0, 0); stroke-opacity: 1; fill: rgb(127, 127, 127); fill-opacity: 0.8;"/><rect class="node-capture" x="-10" y="-7.5" width="50" height="130.08403361344574" style="fill-opacity: 0;"/><g class="node-entered" transform="translate(0 58.54201680672287)"><path class="node-label-guide" id="b1f3a3_0_node_17" d="M-630,0L-4,0" transform="matrix(1 0 0 1 0 0)"/><text class="node-label" transform="scale(1 1)" style="user-select: none; cursor: default; fill: rgb(68, 68, 68); text-shadow: rgb(255, 255, 255) -1px 1px 1px, rgb(255, 255, 255) 1px 1px 1px, rgb(255, 255, 255) 1px -1px 1px, rgb(255, 255, 255) -1px -1px 1px; font-family: 'Open Sans', verdana, arial, sans-serif; font-size: 12px; fill-opacity: 1;"><textPath class="node-label-text-path" alignment-baseline="middle" xlink:href="#b1f3a3_0_node_17" startOffset="100%" text-anchor="end" style="fill: rgb(0, 0, 0);">Regional Jet</textPath></text></g></g></g></g><defs id="topdefs-cc3dfb"><g class="clips"/></defs><g class="layer-above"><g class="imagelayer"/><g class="shapelayer"/></g><g class="infolayer"><g class="g-gtitle"><text class="gtitle" x="350" y="12.5" text-anchor="middle" dy="0em" style="font-family: 'Open Sans', verdana, arial, sans-serif; font-size: 17px; fill: rgb(68, 68, 68); opacity: 1; font-weight: normal; white-space: pre;">Landing Summary by Geo Region and Aircraft Type During Sep 2020</text></g><g class="first-render"/></g></svg>