<svg class="main-svg" xmlns="http://www.w3.org/2000/svg" xmlns:xlink="http://www.w3.org/1999/xlink" width="700" height="500" style="" viewBox="0 0 700 500"><rect x="0" y="0" width="700" height="500" style="fill: rgb(255, 255, 255); fill-opacity: 1;"/><defs id="defs-ee1779"><g class="clips"><clipPath id="clipee1779xyplot" class="plotclip"><rect width="630" height="435"/></clipPath><clipPath class="axesclip" id="clipee1779x"><rect x="60" y="0" width="630" height="500"/></clipPath><clipPath class="axesclip" id="clipee1779y"><rect x="0" y="25" width="700" height="435"/></clipPath><clipPath class="axesclip" id="clipee1779xy"><rect x="60" y="25" width="630" height="435"/></clipPath></g><g class="gradients"/></defs><g class="bglayer"/><g class="layer-below"><g class="imagelayer"/><g class="shapelayer"/></g><g class="cartesianlayer"><g class="subplot xy"><g class="layer-subplot"><g class="shapelayer"/><g class="imagelayer"/></g><g class="gridlayer"><g class="x"><path class="xgrid crisp" transform="translate(80.58,0)" d="M0,25v435" style="stroke: rgb(238, 238, 238); stroke-opacity: 1; stroke-width: 1px;"/><path class="xgrid crisp" transform="translate(162.24,0)" d="M0,25v435" style="stroke: rgb(238, 238, 238); stroke-opacity: 1; stroke-width: 1px;"/><path class="xgrid crisp" transform="translate(244.01,0)" d="M0,25v435" style="stroke: rgb(238, 238, 238); stroke-opacity: 1; stroke-width: 1px;"/><path class="xgrid crisp" transform="translate(325.67,0)" d="M0,25v435" style="stroke: rgb(238, 238, 238); stroke-opacity: 1; stroke-width: 1px;"/><path class="xgrid crisp" transform="translate(407.44,0)" d="M0,25v435" style="stroke: rgb(238, 238, 238); stroke-opacity: 1; stroke-width: 1px;"/><path class="xgrid crisp" transform="translate(489.1,0)" d="M0,25v435" style="stroke: rgb(238, 238, 238); stroke-opacity: 1; stroke-width: 1px;"/><path class="xgrid crisp" transform="translate(570.87,0)" d="M0,25v435" style="stroke: rgb(238, 238, 238); stroke-opacity: 1; stroke-width: 1px;"/><path class="xgrid crisp" transform="translate(652.53,0)" d="M0,25v435" style="stroke: rgb(238, 238, 238); stroke-opacity: 1; stroke-width: 1px;"/></g><g class="y"><path class="ygrid crisp" transform="translate(0,378.08)" d="M60,0h630" style="stroke: rgb(238, 238, 238); stroke-opacity: 1; stroke-width: 1px;"/><path class="ygrid crisp" transform="translate(0,308.22)" d="M60,0h630" style="stroke: rgb(238, 238, 238); stroke-opacity: 1; stroke-width: 1px;"/><path class="ygrid crisp" transform="translate(0,238.35)" d="M60,0h630" style="stroke: rgb(238, 238, 238); stroke-opacity: 1; stroke-width: 1px;"/><path class="ygrid crisp" transform="translate(0,168.49)" d="M60,0h630" style="stroke: rgb(238, 238, 238); stroke-opacity: 1; stroke-width: 1px;"/><path class="ygrid crisp" transform="translate(0,98.62)" d="M60,0h630" style="stroke: rgb(238, 238, 238); stroke-opacity: 1; stroke-width: 1px;"/><path class="ygrid crisp" transform="translate(0,28.759999999999998)" d="M60,0h630" style="stroke: rgb(238, 238, 238); stroke-opacity: 1; stroke-width: 1px;"/></g></g><g class="zerolinelayer"><path class="yzl zl crisp" transform="translate(0,447.95)" d="M60,0h630" style="stroke: rgb(68, 68, 68); stroke-opacity: 1; stroke-width: 1px;"/></g><path class="xlines-below"/><path class="ylines-below"/><g class="overlines-below"/><g class="xaxislayer-below"/><g class="yaxislayer-below"/><g class="overaxes-below"/><g class="plot" transform="translate(60, 25)" clip-path="url('#clipee1779xyplot')"><g class="scatterlayer mlayer"><g class="trace scatter tracef9c241" style="stroke-miterlimit: 2; opacity: 1;"><g class="fills"/><g class="errorbars"/><g class="lines"><path class="js-line" d="M0,197.58L3.47,199.67L6.94,231.48L10.29,229.37L13.76,240.09L17.11,236.28L20.58,251.86L24.05,267.64L27.18,233.7L34.01,225.3L37.47,208.36L40.83,197.45L44.3,203.3L47.76,232.91L51.12,224.88L54.59,237.53L57.94,234.44L64.88,261.91L68.01,225.92L71.48,222.49L74.83,209.37L78.3,194.93L81.66,186.64L85.13,182.86L88.59,216.32L91.95,204.32L95.42,218.77L98.77,220.08L102.24,236.4L105.71,241.6L108.95,204.45L112.42,211.32L115.78,191.98L122.6,171.16L126.07,170.57L129.53,213.02L132.89,204.66L136.36,231.2L139.71,215.94L146.65,258.08L149.78,218.53L153.25,211.61L156.61,200.98L163.43,167.96L166.9,167.89L170.36,199.97L173.72,195.93L177.19,215.34L180.54,208.17L187.48,247.21L190.61,205.95L194.08,203.64L197.43,186.78L200.9,170.53L204.26,159.85L207.73,159.43L211.19,188.45L214.55,179.11L218.02,201.92L221.37,201.68L224.84,221.47L228.31,240.55L231.44,204.32L234.91,199.34L238.26,175.08L245.09,147.99L248.55,149.22L252.02,173.88L255.38,171.26L258.85,190.52L262.2,182.49L269.14,213.48L272.38,180.34L275.85,174.02L279.2,156.02L282.67,136L286.03,123.61L289.5,118.6L292.96,156.11L296.32,154.32L299.79,179.89L303.14,182.4L306.61,199.05L310.08,215.69L313.21,171.9L316.68,171.15L320.03,148.17L323.5,133.23L326.86,131.16L330.32,119.24L333.79,158.78L337.15,149.72L340.62,180.73L343.97,156.41L347.44,183.13L350.91,207.87L354.04,159.87L357.51,151.74L360.86,133.21L367.69,108.61L371.15,106.81L374.62,149.14L377.98,139.33L381.45,169.42L384.8,153.56L391.74,196.02L394.87,143.38L398.34,141.97L401.69,118.26L405.16,104.47L408.52,87.51L411.98,87.83L415.45,129.42L418.81,117.3L422.27,142.52L425.63,134.47L429.1,161.06L432.57,175.37L435.81,133.87L439.28,131.43L442.63,103.38L446.1,79.06L449.46,61.83L452.92,65.89L456.39,105.5L459.75,103.52L463.22,124.87L466.57,119.5L470.04,150.63L473.51,179.72L476.64,120.06L480.11,113.73L483.46,94.72L490.29,38.93L493.75,37.51L497.22,92.06L500.58,82.8L504.04,103.47L507.4,97.34L510.87,130.19L514.34,151.72L517.47,96.39L520.94,93.66L524.29,71.83L527.76,43.78L531.12,25.23L534.58,35.48L538.05,98.14L541.41,83.28L544.87,107.95L548.23,103.21L555.17,160.76L558.3,101.62L561.76,95.07L565.12,73.06L568.59,41.02L571.94,30.84L575.41,21.75L578.88,110.55L582.24,85.88L585.7,117.6L589.06,93.11L592.53,126.6L595.99,161.5L599.24,291.22L602.71,413.25L606.06,402.93L612.89,369.48L616.35,363.38L619.82,359.65L623.18,347.92L626.64,349.43L630,358.76" style="vector-effect: non-scaling-stroke; fill: none; stroke: rgb(31, 119, 180); stroke-opacity: 1; stroke-width: 2px; opacity: 1;"/></g><g class="points"/><g class="text"/></g></g></g><g class="overplot"/><path class="xlines-above crisp" d="M0,0" style="fill: none;"/><path class="ylines-above crisp" d="M0,0" style="fill: none;"/><g class="overlines-above"/><g class="xaxislayer-above"><g class="xtick"><text text-anchor="middle" x="0" y="473" transform="translate(80.58,0)" style="font-family: 'Open Sans', verdana, arial, sans-serif; font-size: 12px; fill: rgb(68, 68, 68); fill-opacity: 1; white-space: pre;">2006</text></g><g class="xtick"><text text-anchor="middle" x="0" y="473" transform="translate(162.24,0)" style="font-family: 'Open Sans', verdana, arial, sans-serif; font-size: 12px; fill: rgb(68, 68, 68); fill-opacity: 1; white-space: pre;">2008</text></g><g class="xtick"><text text-anchor="middle" x="0" y="473" transform="translate(244.01,0)" style="font-family: 'Open Sans', verdana, arial, sans-serif; font-size: 12px; fill: rgb(68, 68, 68); fill-opacity: 1; white-space: pre;">2010</text></g><g class="xtick"><text text-anchor="middle" x="0" y="473" transform="translate(325.67,0)" style="font-family: 'Open Sans', verdana, arial, sans-serif; font-size: 12px; fill: rgb(68, 68, 68); fill-opacity: 1; white-space: pre;">2012</text></g><g class="xtick"><text text-anchor="middle" x="0" y="473" transform="translate(407.44,0)" style="font-family: 'Open Sans', verdana, arial, sans-serif; font-size: 12px; fill: rgb(68, 68, 68); fill-opacity: 1; white-space: pre;">2014</text></g><g class="xtick"><text text-anchor="middle" x="0" y="473" transform="translate(489.1,0)" style="font-family: 'Open Sans', verdana, arial, sans-serif; font-size: 12px; fill: rgb(68, 68, 68); fill-opacity: 1; white-space: pre;">2016</text></g><g class="xtick"><text text-anchor="middle" x="0" y="473" transform="translate(570.87,0)" style="font-family: 'Open Sans', verdana, arial, sans-serif; font-size: 12px; fill: rgb(68, 68, 68); fill-opacity: 1; white-space: pre;">2018</text></g><g class="xtick"><text text-anchor="middle" x="0" y="473" transform="translate(652.53,0)" style="font-family: 'Open Sans', verdana, arial, sans-serif; font-size: 12px; fill: rgb(68, 68, 68); fill-opacity: 1; white-space: pre;">2020</text></g></g><g class="yaxislayer-above"><g class="ytick"><text text-anchor="end" x="59" y="4.199999999999999" transform="translate(0,447.95)" style="font-family: 'Open Sans', verdana, arial, sans-serif; font-size: 12px; fill: rgb(68, 68, 68); fill-opacity: 1; white-space: pre;">0</text></g><g class="ytick"><text text-anchor="end" x="59" y="4.199999999999999" transform="translate(0,378.08)" style="font-family: 'Open Sans', verdana, arial, sans-serif; font-size: 12px; fill: rgb(68, 68, 68); fill-opacity: 1; white-space: pre;">1M</text></g><g class="ytick"><text text-anchor="end" x="59" y="4.199999999999999" transform="translate(0,308.22)" style="font-family: 'Open Sans', verdana, arial, sans-serif; font-size: 12px; fill: rgb(68, 68, 68); fill-opacity: 1; white-space: pre;">2M</text></g><g class="ytick"><text text-anchor="end" x="59" y="4.199999999999999" transform="translate(0,238.35)" style="font-family: 'Open Sans', verdana, arial, sans-serif; font-size: 12px; fill: rgb(68, 68, 68); fill-opacity: 1; white-space: pre;">3M</text></g><g class="ytick"><text text-anchor="end" x="59" y="4.199999999999999" transform="translate(0,168.49)" style="font-family: 'Open Sans', verdana, arial, sans-serif; font-size: 12px; fill: rgb(68, 68, 68); fill-opacity: 1; white-space: pre;">4M</text></g><g class="ytick"><text text-anchor="end" x="59" y="4.199999999999999" transform="translate(0,98.62)" style="font-family: 'Open Sans', verdana, arial, sans-serif; font-size: 12px; fill: rgb(68, 68, 68); fill-opacity: 1; white-space: pre;">5M</text></g><g class="ytick"><text text-anchor="end" x="59" y="4.199999999999999" transform="translate(0,28.759999999999998)" style="font-family: 'Open Sans', verdana, arial, sans-serif; font-size: 12px; fill: rgb(68, 68, 68); fill-opacity: 1; white-space: pre;">6M</text></g></g><g class="overaxes-above"/></g></g><g class="polarlayer"/><g class="ternarylayer"/><g class="geolayer"/><g class="funnelarealayer"/><g class="pielayer"/><g class="treemaplayer"/><g class="sunburstlayer"/><g class="glimages"/><defs id="topdefs-ee1779"><g class="clips"/></defs><g class="layer-above"><g class="imagelayer"/><g class="shapelayer"/></g><g class="infolayer"><g class="g-gtitle"><text class="gtitle" x="350" y="12.5" text-anchor="middle" dy="0em" style="font-family: 'Open Sans', verdana, arial, sans-serif; font-size: 17px; fill: rgb(68, 68, 68); opacity: 1; font-weight: normal; white-space: pre;">Monthly Air Traffic Passengers in SFO</text></g><g class="g-xtitle" transform="translate(0,-15)"><text class="xtitle" x="375" y="512" text-anchor="middle" style="font-family: 'Open Sans', verdana, arial, sans-serif; font-size: 14px; fill: rgb(68, 68, 68); opacity: 1; font-weight: normal; white-space: pre;">Source: San Francisco data portal (DataSF)</text></g><g class="g-ytitle"><text class="ytitle" transform="rotate(-90,22,242.5)" x="22" y="242.5" text-anchor="middle" style="font-family: 'Open Sans', verdana, arial, sans-serif; font-size: 14px; fill: rgb(68, 68, 68); opacity: 1; font-weight: normal; white-space: pre;">Number of Passengers</text></g></g></svg>