<svg class="main-svg" xmlns="http://www.w3.org/2000/svg" xmlns:xlink="http://www.w3.org/1999/xlink" width="700" height="500" style="" viewBox="0 0 700 500"><rect x="0" y="0" width="700" height="500" style="fill: rgb(255, 255, 255); fill-opacity: 1;"/><defs id="defs-7c561d"><g class="clips"/><g class="gradients"/></defs><g class="bglayer"/><g class="layer-below"><g class="imagelayer"/><g class="shapelayer"/></g><g class="cartesianlayer"/><g class="polarlayer"/><g class="ternarylayer"/><g class="geolayer"/><g class="funnelarealayer"/><g class="pielayer"/><g class="treemaplayer"/><g class="sunburstlayer"/><g class="glimages"/><g class="sankey" transform="translate(60,25)matrix(1 0 0 1 0 0)" style="box-sizing: content-box; position: absolute; left: 0px; shape-rendering: geometricprecision; pointer-events: auto;"><g class="sankey-links" style="fill: none;"><path class="sankey-link" d="M30,313.1734458940908C115,313.1734458940908 115,375.981320121652 200,375.981320121652L200,378.93603999885846C115,378.93603999885846 115,316.12816577129723 30,316.12816577129723Z" style="stroke: rgb(68, 68, 68); stroke-opacity: 1; fill: rgb(0, 0, 0); fill-opacity: 0.2; stroke-width: 0; opacity: 1;"/><path class="sankey-link" d="M30,292.49040675364563C115,292.49040675364563 115,300.958296330401 200,300.958296330401L200,321.6413354708461C115,321.6413354708461 115,313.1734458940907 30,313.1734458940907Z" style="stroke: rgb(68, 68, 68); stroke-opacity: 1; fill: rgb(0, 0, 0); fill-opacity: 0.2; stroke-width: 0; opacity: 1;"/><path class="sankey-link" d="M30,399.8925556408291C115,399.8925556408291 115,345.405725340378 200,345.405725340378L200,348.02276294590376C115,348.02276294590376 115,402.5095932463548 30,402.5095932463548Z" style="stroke: rgb(68, 68, 68); stroke-opacity: 1; fill: rgb(0, 0, 0); fill-opacity: 0.2; stroke-width: 0; opacity: 1;"/><path class="sankey-link" d="M30,381.17805065234097C115,381.17805065234097 115,341.6912203518899 200,341.6912203518899L200,345.405725340378C115,345.405725340378 115,384.8925556408291 30,384.8925556408291Z" style="stroke: rgb(68, 68, 68); stroke-opacity: 1; fill: rgb(0, 0, 0); fill-opacity: 0.2; stroke-width: 0; opacity: 1;"/><path class="sankey-link" d="M30,417.5095932463547C115,417.5095932463547 115,348.0227629459037 200,348.0227629459037L200,349.96443600806793C115,349.96443600806793 115,419.45126630851894 30,419.45126630851894Z" style="stroke: rgb(68, 68, 68); stroke-opacity: 1; fill: rgb(0, 0, 0); fill-opacity: 0.2; stroke-width: 0; opacity: 1;"/><path class="sankey-link" d="M30,359.719877206447C115,359.719877206447 115,335.2330469059958 200,335.2330469059958L200,341.6912203518899C115,341.6912203518899 115,366.1780506523411 30,366.1780506523411Z" style="stroke: rgb(68, 68, 68); stroke-opacity: 1; fill: rgb(0, 0, 0); fill-opacity: 0.2; stroke-width: 0; opacity: 1;"/><path class="sankey-link" d="M30,331.1281657712974C115,331.1281657712974 115,321.6413354708462 200,321.6413354708462L200,335.2330469059959C115,335.2330469059959 115,344.7198772064471 30,344.7198772064471Z" style="stroke: rgb(68, 68, 68); stroke-opacity: 1; fill: rgb(0, 0, 0); fill-opacity: 0.2; stroke-width: 0; opacity: 1;"/><path class="sankey-link" d="M30,434.4512663085188C115,434.4512663085188 115,349.96443600806793 200,349.96443600806793L200,350.5131696995491C115,350.5131696995491 115,435 30,435Z" style="stroke: rgb(0, 0, 0); stroke-opacity: 0.2; fill: rgb(0, 0, 0); fill-opacity: 0.2; stroke-width: 1; opacity: 1;"/><path class="sankey-link" d="M30,267.0222563315427C115,267.0222563315427 115,365.51316969954917 200,365.51316969954917L200,375.98132012165206C115,375.98132012165206 115,277.4904067536456 30,277.4904067536456Z" style="stroke: rgb(68, 68, 68); stroke-opacity: 1; fill: rgb(0, 0, 0); fill-opacity: 0.2; stroke-width: 0; opacity: 1;"/><path class="sankey-link" d="M30,5.684341886080802e-14C115,5.684341886080802e-14 115,33.93603999885843 200,33.93603999885843L200,300.958296330401C115,300.958296330401 115,267.0222563315427 30,267.0222563315427Z" style="stroke: rgb(68, 68, 68); stroke-opacity: 1; fill: rgb(0, 0, 0); fill-opacity: 0.2; stroke-width: 0; opacity: 1;"/><path class="sankey-link" d="M230,378.89382971489835C315,378.89382971489835 315,279.4244052187259 400,279.4244052187259L400,279.466615502686C315,279.466615502686 315,378.93603999885846 230,378.93603999885846Z" style="stroke: rgb(0, 0, 0); stroke-opacity: 0.2; fill: rgb(0, 0, 0); fill-opacity: 0.2; stroke-width: 1; opacity: 1;"/><path class="sankey-link" d="M230,365.51316969954917C315,365.51316969954917 315,188.19263238679957 400,188.19263238679957L400,201.57329240214875C315,201.57329240214875 315,378.8938297148984 230,378.8938297148984Z" style="stroke: rgb(68, 68, 68); stroke-opacity: 1; fill: rgb(0, 0, 0); fill-opacity: 0.2; stroke-width: 0; opacity: 1;"/><path class="sankey-link" d="M230,162.12867238565812C315,162.12867238565812 315,216.57329240214875 400,216.57329240214875L400,279.4244052187259C315,279.4244052187259 315,224.97978520223526 230,224.97978520223526Z" style="stroke: rgb(68, 68, 68); stroke-opacity: 1; fill: rgb(0, 0, 0); fill-opacity: 0.2; stroke-width: 0; opacity: 1;"/><path class="sankey-link" d="M230,33.93603999885843C315,33.93603999885843 315,59.99999999999987 400,59.99999999999987L400,188.19263238679957C315,188.19263238679957 315,162.12867238565812 230,162.12867238565812Z" style="stroke: rgb(68, 68, 68); stroke-opacity: 1; fill: rgb(0, 0, 0); fill-opacity: 0.2; stroke-width: 0; opacity: 1;"/><path class="sankey-link" d="M230,314.8454797532713C315,314.8454797532713 315,399.33231005372204 400,399.33231005372204L400,434.9999999999999C315,434.9999999999999 315,350.51316969954917 230,350.51316969954917Z" style="stroke: rgb(68, 68, 68); stroke-opacity: 1; fill: rgb(0, 0, 0); fill-opacity: 0.2; stroke-width: 0; opacity: 1;"/><path class="sankey-link" d="M230,224.97978520223523C315,224.97978520223523 315,294.466615502686 400,294.466615502686L400,384.3323100537221C315,384.3323100537221 315,314.8454797532713 230,314.8454797532713Z" style="stroke: rgb(68, 68, 68); stroke-opacity: 1; fill: rgb(0, 0, 0); fill-opacity: 0.2; stroke-width: 0; opacity: 1;"/><path class="sankey-link" d="M430,216.57329240214875C515,216.57329240214875 515,166.3008442056788 600,166.3008442056788L600,223.83346124328432C515,223.83346124328432 515,274.10590943975427 430,274.10590943975427Z" style="stroke: rgb(68, 68, 68); stroke-opacity: 1; fill: rgb(0, 0, 0); fill-opacity: 0.2; stroke-width: 0; opacity: 1;"/><path class="sankey-link" d="M430,274.10590943975427C515,274.10590943975427 515,429.63929393706815 600,429.63929393706815L600,434.9999999999999C515,434.9999999999999 515,279.466615502686 430,279.466615502686Z" style="stroke: rgb(68, 68, 68); stroke-opacity: 1; fill: rgb(0, 0, 0); fill-opacity: 0.2; stroke-width: 0; opacity: 1;"/><path class="sankey-link" d="M430,59.99999999999988C515,59.99999999999988 515,74.9999999999996 600,74.9999999999996L600,166.3008442056788C515,166.3008442056788 515,151.30084420567908 430,151.30084420567908Z" style="stroke: rgb(68, 68, 68); stroke-opacity: 1; fill: rgb(0, 0, 0); fill-opacity: 0.2; stroke-width: 0; opacity: 1;"/><path class="sankey-link" d="M430,151.30084420567908C515,151.30084420567908 515,379.3668457405985 600,379.3668457405985L600,429.63929393706815C515,429.63929393706815 515,201.57329240214875 430,201.57329240214875Z" style="stroke: rgb(68, 68, 68); stroke-opacity: 1; fill: rgb(0, 0, 0); fill-opacity: 0.2; stroke-width: 0; opacity: 1;"/><path class="sankey-link" d="M430,399.33231005372204C515,399.33231005372204 515,223.83346124328432 600,223.83346124328432L600,229.02532617037565C515,229.02532617037565 515,404.5241749808133 430,404.5241749808133Z" style="stroke: rgb(68, 68, 68); stroke-opacity: 1; fill: rgb(0, 0, 0); fill-opacity: 0.2; stroke-width: 0; opacity: 1;"/><path class="sankey-link" d="M430,404.52417498081337C515,404.52417498081337 515,333.8910207214118 600,333.8910207214118L600,364.36684574059825C515,364.36684574059825 515,434.99999999999983 430,434.99999999999983Z" style="stroke: rgb(68, 68, 68); stroke-opacity: 1; fill: rgb(0, 0, 0); fill-opacity: 0.2; stroke-width: 0; opacity: 1;"/><path class="sankey-link" d="M430,294.466615502686C515,294.466615502686 515,244.0253261703757 600,244.0253261703757L600,333.8910207214118C515,333.8910207214118 515,384.3323100537221 430,384.3323100537221Z" style="stroke: rgb(68, 68, 68); stroke-opacity: 1; fill: rgb(0, 0, 0); fill-opacity: 0.2; stroke-width: 0; opacity: 1;"/></g><g class="sankey-node-set" style="cursor: move;"><g class="sankey-node" transform="translate(0.000, 292.490)" style="opacity: 1;"><rect class="node-rect" width="30" height="23.637759017651774" style="stroke-width: 0.5; stroke: rgb(0, 0, 0); stroke-opacity: 1; fill: rgb(31, 119, 180); fill-opacity: 0.8;"/><rect class="node-capture" x="-10" y="-7.5" width="50" height="38.637759017651774" style="fill-opacity: 0;"/><g class="node-entered" transform="translate(0 12.818879508825887)"><path class="node-label-guide" id="fa137a_0_node_0" d="M34,0L630,0" transform="matrix(1 0 0 1 0 0)"/><text class="node-label" transform="scale(1 1)" style="cursor: default; fill: rgb(68, 68, 68); text-shadow: rgb(255, 255, 255) -1px 1px 1px, rgb(255, 255, 255) 1px 1px 1px, rgb(255, 255, 255) 1px -1px 1px, rgb(255, 255, 255) -1px -1px 1px; font-family: 'Open Sans', verdana, arial, sans-serif; font-size: 12px; fill-opacity: 1;"><textPath class="node-label-text-path" alignment-baseline="middle" xlink:href="#fa137a_0_node_0" startOffset="0%" text-anchor="start" style="fill: rgb(0, 0, 0);">Asia</textPath></text></g></g><g class="sankey-node" transform="translate(0.000, 399.893)" style="opacity: 1;"><rect class="node-rect" width="30" height="2.6170376055256384" style="stroke-width: 0.5; stroke: rgb(0, 0, 0); stroke-opacity: 1; fill: rgb(255, 127, 14); fill-opacity: 0.8;"/><rect class="node-capture" x="-10" y="-7.5" width="50" height="17.61703760552564" style="fill-opacity: 0;"/><g class="node-entered" transform="translate(0 2.308518802762819)"><path class="node-label-guide" id="fa137a_0_node_1" d="M34,0L630,0" transform="matrix(1 0 0 1 0 0)"/><text class="node-label" transform="scale(1 1)" style="cursor: default; fill: rgb(68, 68, 68); text-shadow: rgb(255, 255, 255) -1px 1px 1px, rgb(255, 255, 255) 1px 1px 1px, rgb(255, 255, 255) 1px -1px 1px, rgb(255, 255, 255) -1px -1px 1px; font-family: 'Open Sans', verdana, arial, sans-serif; font-size: 12px; fill-opacity: 1;"><textPath class="node-label-text-path" alignment-baseline="middle" xlink:href="#fa137a_0_node_1" startOffset="0%" text-anchor="start" style="fill: rgb(0, 0, 0);">Australia / Oceania</textPath></text></g></g><g class="sankey-node" transform="translate(0.000, 381.178)" style="opacity: 1;"><rect class="node-rect" width="30" height="3.714504988488102" style="stroke-width: 0.5; stroke: rgb(0, 0, 0); stroke-opacity: 1; fill: rgb(44, 160, 44); fill-opacity: 0.8;"/><rect class="node-capture" x="-10" y="-7.5" width="50" height="18.714504988488102" style="fill-opacity: 0;"/><g class="node-entered" transform="translate(0 2.857252494244051)"><path class="node-label-guide" id="fa137a_0_node_2" d="M34,0L630,0" transform="matrix(1 0 0 1 0 0)"/><text class="node-label" transform="scale(1 1)" style="cursor: default; fill: rgb(68, 68, 68); text-shadow: rgb(255, 255, 255) -1px 1px 1px, rgb(255, 255, 255) 1px 1px 1px, rgb(255, 255, 255) 1px -1px 1px, rgb(255, 255, 255) -1px -1px 1px; font-family: 'Open Sans', verdana, arial, sans-serif; font-size: 12px; fill-opacity: 1;"><textPath class="node-label-text-path" alignment-baseline="middle" xlink:href="#fa137a_0_node_2" startOffset="0%" text-anchor="start" style="fill: rgb(0, 0, 0);">Canada</textPath></text></g></g><g class="sankey-node" transform="translate(0.000, 417.510)" style="opacity: 1;"><rect class="node-rect" width="30" height="1.9416730621641136" style="stroke-width: 0.5; stroke: rgb(0, 0, 0); stroke-opacity: 1; fill: rgb(214, 39, 40); fill-opacity: 0.8;"/><rect class="node-capture" x="-10" y="-7.5" width="50" height="16.941673062164114" style="fill-opacity: 0;"/><g class="node-entered" transform="translate(0 1.9708365310820568)"><path class="node-label-guide" id="fa137a_0_node_3" d="M34,0L630,0" transform="matrix(1 0 0 1 0 0)"/><text class="node-label" transform="scale(1 1)" style="cursor: default; fill: rgb(68, 68, 68); text-shadow: rgb(255, 255, 255) -1px 1px 1px, rgb(255, 255, 255) 1px 1px 1px, rgb(255, 255, 255) 1px -1px 1px, rgb(255, 255, 255) -1px -1px 1px; font-family: 'Open Sans', verdana, arial, sans-serif; font-size: 12px; fill-opacity: 1;"><textPath class="node-label-text-path" alignment-baseline="middle" xlink:href="#fa137a_0_node_3" startOffset="0%" text-anchor="start" style="fill: rgb(0, 0, 0);">Central America</textPath></text></g></g><g class="sankey-node" transform="translate(0.000, 359.720)" style="opacity: 1;"><rect class="node-rect" width="30" height="6.458173445893976" style="stroke-width: 0.5; stroke: rgb(0, 0, 0); stroke-opacity: 1; fill: rgb(148, 103, 189); fill-opacity: 0.8;"/><rect class="node-capture" x="-10" y="-7.5" width="50" height="21.458173445893976" style="fill-opacity: 0;"/><g class="node-entered" transform="translate(0 4.229086722946988)"><path class="node-label-guide" id="fa137a_0_node_4" d="M34,0L630,0" transform="matrix(1 0 0 1 0 0)"/><text class="node-label" transform="scale(1 1)" style="cursor: default; fill: rgb(68, 68, 68); text-shadow: rgb(255, 255, 255) -1px 1px 1px, rgb(255, 255, 255) 1px 1px 1px, rgb(255, 255, 255) 1px -1px 1px, rgb(255, 255, 255) -1px -1px 1px; font-family: 'Open Sans', verdana, arial, sans-serif; font-size: 12px; fill-opacity: 1;"><textPath class="node-label-text-path" alignment-baseline="middle" xlink:href="#fa137a_0_node_4" startOffset="0%" text-anchor="start" style="fill: rgb(0, 0, 0);">Europe</textPath></text></g></g><g class="sankey-node" transform="translate(0.000, 331.128)" style="opacity: 1;"><rect class="node-rect" width="30" height="13.591711435149591" style="stroke-width: 0.5; stroke: rgb(0, 0, 0); stroke-opacity: 1; fill: rgb(140, 86, 75); fill-opacity: 0.8;"/><rect class="node-capture" x="-10" y="-7.5" width="50" height="28.59171143514959" style="fill-opacity: 0;"/><g class="node-entered" transform="translate(0 7.795855717574796)"><path class="node-label-guide" id="fa137a_0_node_5" d="M34,0L630,0" transform="matrix(1 0 0 1 0 0)"/><text class="node-label" transform="scale(1 1)" style="cursor: default; fill: rgb(68, 68, 68); text-shadow: rgb(255, 255, 255) -1px 1px 1px, rgb(255, 255, 255) 1px 1px 1px, rgb(255, 255, 255) 1px -1px 1px, rgb(255, 255, 255) -1px -1px 1px; font-family: 'Open Sans', verdana, arial, sans-serif; font-size: 12px; fill-opacity: 1;"><textPath class="node-label-text-path" alignment-baseline="middle" xlink:href="#fa137a_0_node_5" startOffset="0%" text-anchor="start" style="fill: rgb(0, 0, 0);">Mexico</textPath></text></g></g><g class="sankey-node" transform="translate(0.000, 434.451)" style="opacity: 1;"><rect class="node-rect" width="30" height="0.5487336914811749" style="stroke-width: 0.5; stroke: rgb(0, 0, 0); stroke-opacity: 1; fill: rgb(227, 119, 194); fill-opacity: 0.8;"/><rect class="node-capture" x="-10" y="-7.5" width="50" height="15.548733691481175" style="fill-opacity: 0;"/><g class="node-entered" transform="translate(0 1.2743668457405875)"><path class="node-label-guide" id="fa137a_0_node_6" d="M34,0L630,0" transform="matrix(1 0 0 1 0 0)"/><text class="node-label" transform="scale(1 1)" style="cursor: default; fill: rgb(68, 68, 68); text-shadow: rgb(255, 255, 255) -1px 1px 1px, rgb(255, 255, 255) 1px 1px 1px, rgb(255, 255, 255) 1px -1px 1px, rgb(255, 255, 255) -1px -1px 1px; font-family: 'Open Sans', verdana, arial, sans-serif; font-size: 12px; fill-opacity: 1;"><textPath class="node-label-text-path" alignment-baseline="middle" xlink:href="#fa137a_0_node_6" startOffset="0%" text-anchor="start" style="fill: rgb(0, 0, 0);">Middle East</textPath></text></g></g><g class="sankey-node" transform="translate(0.000, 0.000)" style="opacity: 1;"><rect class="node-rect" width="30" height="277.4904067536456" style="stroke-width: 0.5; stroke: rgb(0, 0, 0); stroke-opacity: 1; fill: rgb(127, 127, 127); fill-opacity: 0.8;"/><rect class="node-capture" x="-10" y="-7.5" width="50" height="292.4904067536456" style="fill-opacity: 0;"/><g class="node-entered" transform="translate(0 139.7452033768228)"><path class="node-label-guide" id="fa137a_0_node_7" d="M34,0L630,0" transform="matrix(1 0 0 1 0 0)"/><text class="node-label" transform="scale(1 1)" style="cursor: default; fill: rgb(68, 68, 68); text-shadow: rgb(255, 255, 255) -1px 1px 1px, rgb(255, 255, 255) 1px 1px 1px, rgb(255, 255, 255) 1px -1px 1px, rgb(255, 255, 255) -1px -1px 1px; font-family: 'Open Sans', verdana, arial, sans-serif; font-size: 12px; fill-opacity: 1;"><textPath class="node-label-text-path" alignment-baseline="middle" xlink:href="#fa137a_0_node_7" startOffset="0%" text-anchor="start" style="fill: rgb(0, 0, 0);">US</textPath></text></g></g><g class="sankey-node" transform="translate(200.000, 365.513)" style="opacity: 1;"><rect class="node-rect" width="30" height="13.422870299309011" style="stroke-width: 0.5; stroke: rgb(0, 0, 0); stroke-opacity: 1; fill: rgb(188, 189, 34); fill-opacity: 0.8;"/><rect class="node-capture" x="-10" y="-7.5" width="50" height="28.42287029930901" style="fill-opacity: 0;"/><g class="node-entered" transform="translate(0 7.7114351496545055)"><path class="node-label-guide" id="fa137a_0_node_8" d="M34,0L630,0" transform="matrix(1 0 0 1 0 0)"/><text class="node-label" transform="scale(1 1)" style="cursor: default; fill: rgb(68, 68, 68); text-shadow: rgb(255, 255, 255) -1px 1px 1px, rgb(255, 255, 255) 1px 1px 1px, rgb(255, 255, 255) 1px -1px 1px, rgb(255, 255, 255) -1px -1px 1px; font-family: 'Open Sans', verdana, arial, sans-serif; font-size: 12px; fill-opacity: 1;"><textPath class="node-label-text-path" alignment-baseline="middle" xlink:href="#fa137a_0_node_8" startOffset="0%" text-anchor="start" style="fill: rgb(0, 0, 0);">Freighter</textPath></text></g></g><g class="sankey-node" transform="translate(200.000, 33.936)" style="opacity: 1;"><rect class="node-rect" width="30" height="316.57712970069076" style="stroke-width: 0.5; stroke: rgb(0, 0, 0); stroke-opacity: 1; fill: rgb(23, 190, 207); fill-opacity: 0.8;"/><rect class="node-capture" x="-10" y="-7.5" width="50" height="331.57712970069076" style="fill-opacity: 0;"/><g class="node-entered" transform="translate(0 159.28856485034538)"><path class="node-label-guide" id="fa137a_0_node_9" d="M34,0L630,0" transform="matrix(1 0 0 1 0 0)"/><text class="node-label" transform="scale(1 1)" style="cursor: default; fill: rgb(68, 68, 68); text-shadow: rgb(255, 255, 255) -1px 1px 1px, rgb(255, 255, 255) 1px 1px 1px, rgb(255, 255, 255) 1px -1px 1px, rgb(255, 255, 255) -1px -1px 1px; font-family: 'Open Sans', verdana, arial, sans-serif; font-size: 12px; fill-opacity: 1;"><textPath class="node-label-text-path" alignment-baseline="middle" xlink:href="#fa137a_0_node_9" startOffset="0%" text-anchor="start" style="fill: rgb(0, 0, 0);">Passenger</textPath></text></g></g><g class="sankey-node" transform="translate(400.000, 60.000)" style="opacity: 1;"><rect class="node-rect" width="30" height="141.57329240214887" style="stroke-width: 0.5; stroke: rgb(0, 0, 0); stroke-opacity: 1; fill: rgb(31, 119, 180); fill-opacity: 0.8;"/><rect class="node-capture" x="-10" y="-7.5" width="50" height="156.57329240214887" style="fill-opacity: 0;"/><g class="node-entered" transform="translate(0 71.78664620107443)"><path class="node-label-guide" id="fa137a_0_node_10" d="M34,0L630,0" transform="matrix(1 0 0 1 0 0)"/><text class="node-label" transform="scale(1 1)" style="cursor: default; fill: rgb(68, 68, 68); text-shadow: rgb(255, 255, 255) -1px 1px 1px, rgb(255, 255, 255) 1px 1px 1px, rgb(255, 255, 255) 1px -1px 1px, rgb(255, 255, 255) -1px -1px 1px; font-family: 'Open Sans', verdana, arial, sans-serif; font-size: 12px; fill-opacity: 1;"><textPath class="node-label-text-path" alignment-baseline="middle" xlink:href="#fa137a_0_node_10" startOffset="0%" text-anchor="start" style="fill: rgb(0, 0, 0);">Boeing</textPath></text></g></g><g class="sankey-node" transform="translate(400.000, 216.573)" style="opacity: 1;"><rect class="node-rect" width="30" height="62.89332310053726" style="stroke-width: 0.5; stroke: rgb(0, 0, 0); stroke-opacity: 1; fill: rgb(255, 127, 14); fill-opacity: 0.8;"/><rect class="node-capture" x="-10" y="-7.5" width="50" height="77.89332310053726" style="fill-opacity: 0;"/><g class="node-entered" transform="translate(0 32.44666155026863)"><path class="node-label-guide" id="fa137a_0_node_11" d="M34,0L630,0" transform="matrix(1 0 0 1 0 0)"/><text class="node-label" transform="scale(1 1)" style="cursor: default; fill: rgb(68, 68, 68); text-shadow: rgb(255, 255, 255) -1px 1px 1px, rgb(255, 255, 255) 1px 1px 1px, rgb(255, 255, 255) 1px -1px 1px, rgb(255, 255, 255) -1px -1px 1px; font-family: 'Open Sans', verdana, arial, sans-serif; font-size: 12px; fill-opacity: 1;"><textPath class="node-label-text-path" alignment-baseline="middle" xlink:href="#fa137a_0_node_11" startOffset="0%" text-anchor="start" style="fill: rgb(0, 0, 0);">Airbus</textPath></text></g></g><g class="sankey-node" transform="translate(400.000, 399.332)" style="opacity: 1;"><rect class="node-rect" width="30" height="35.66768994627796" style="stroke-width: 0.5; stroke: rgb(0, 0, 0); stroke-opacity: 1; fill: rgb(44, 160, 44); fill-opacity: 0.8;"/><rect class="node-capture" x="-10" y="-7.5" width="50" height="50.66768994627796" style="fill-opacity: 0;"/><g class="node-entered" transform="translate(0 18.83384497313898)"><path class="node-label-guide" id="fa137a_0_node_12" d="M34,0L630,0" transform="matrix(1 0 0 1 0 0)"/><text class="node-label" transform="scale(1 1)" style="cursor: default; fill: rgb(68, 68, 68); text-shadow: rgb(255, 255, 255) -1px 1px 1px, rgb(255, 255, 255) 1px 1px 1px, rgb(255, 255, 255) 1px -1px 1px, rgb(255, 255, 255) -1px -1px 1px; font-family: 'Open Sans', verdana, arial, sans-serif; font-size: 12px; fill-opacity: 1;"><textPath class="node-label-text-path" alignment-baseline="middle" xlink:href="#fa137a_0_node_12" startOffset="0%" text-anchor="start" style="fill: rgb(0, 0, 0);">Bombardier</textPath></text></g></g><g class="sankey-node" transform="translate(400.000, 294.467)" style="opacity: 1;"><rect class="node-rect" width="30" height="89.86569455103603" style="stroke-width: 0.5; stroke: rgb(0, 0, 0); stroke-opacity: 1; fill: rgb(214, 39, 40); fill-opacity: 0.8;"/><rect class="node-capture" x="-10" y="-7.5" width="50" height="104.86569455103603" style="fill-opacity: 0;"/><g class="node-entered" transform="translate(0 45.932847275518014)"><path class="node-label-guide" id="fa137a_0_node_13" d="M34,0L630,0" transform="matrix(1 0 0 1 0 0)"/><text class="node-label" transform="scale(1 1)" style="cursor: default; fill: rgb(68, 68, 68); text-shadow: rgb(255, 255, 255) -1px 1px 1px, rgb(255, 255, 255) 1px 1px 1px, rgb(255, 255, 255) 1px -1px 1px, rgb(255, 255, 255) -1px -1px 1px; font-family: 'Open Sans', verdana, arial, sans-serif; font-size: 12px; fill-opacity: 1;"><textPath class="node-label-text-path" alignment-baseline="middle" xlink:href="#fa137a_0_node_13" startOffset="0%" text-anchor="start" style="fill: rgb(0, 0, 0);">Embraer</textPath></text></g></g><g class="sankey-node" transform="translate(600.000, 379.367)" style="opacity: 1;"><rect class="node-rect" width="30" height="55.63315425940152" style="stroke-width: 0.5; stroke: rgb(0, 0, 0); stroke-opacity: 1; fill: rgb(148, 103, 189); fill-opacity: 0.8;"/><rect class="node-capture" x="-10" y="-7.5" width="50" height="70.63315425940152" style="fill-opacity: 0;"/><g class="node-entered" transform="translate(0 28.81657712970076)"><path class="node-label-guide" id="fa137a_0_node_14" d="M-630,0L-4,0" transform="matrix(1 0 0 1 0 0)"/><text class="node-label" transform="scale(1 1)" style="cursor: default; fill: rgb(68, 68, 68); text-shadow: rgb(255, 255, 255) -1px 1px 1px, rgb(255, 255, 255) 1px 1px 1px, rgb(255, 255, 255) 1px -1px 1px, rgb(255, 255, 255) -1px -1px 1px; font-family: 'Open Sans', verdana, arial, sans-serif; font-size: 12px; fill-opacity: 1;"><textPath class="node-label-text-path" alignment-baseline="middle" xlink:href="#fa137a_0_node_14" startOffset="100%" text-anchor="end" style="fill: rgb(0, 0, 0);">Wide Body</textPath></text></g></g><g class="sankey-node" transform="translate(600.000, 75.000)" style="opacity: 1;"><rect class="node-rect" width="30" height="154.0253261703761" style="stroke-width: 0.5; stroke: rgb(0, 0, 0); stroke-opacity: 1; fill: rgb(140, 86, 75); fill-opacity: 0.8;"/><rect class="node-capture" x="-10" y="-7.5" width="50" height="169.0253261703761" style="fill-opacity: 0;"/><g class="node-entered" transform="translate(0 78.01266308518805)"><path class="node-label-guide" id="fa137a_0_node_15" d="M-630,0L-4,0" transform="matrix(1 0 0 1 0 0)"/><text class="node-label" transform="scale(1 1)" style="cursor: default; fill: rgb(68, 68, 68); text-shadow: rgb(255, 255, 255) -1px 1px 1px, rgb(255, 255, 255) 1px 1px 1px, rgb(255, 255, 255) 1px -1px 1px, rgb(255, 255, 255) -1px -1px 1px; font-family: 'Open Sans', verdana, arial, sans-serif; font-size: 12px; fill-opacity: 1;"><textPath class="node-label-text-path" alignment-baseline="middle" xlink:href="#fa137a_0_node_15" startOffset="100%" text-anchor="end" style="fill: rgb(0, 0, 0);">Narrow Body</textPath></text></g></g><g class="sankey-node" transform="translate(600.000, 244.025)" style="opacity: 1;"><rect class="node-rect" width="30" height="120.34151957022277" style="stroke-width: 0.5; stroke: rgb(0, 0, 0); stroke-opacity: 1; fill: rgb(227, 119, 194); fill-opacity: 0.8;"/><rect class="node-capture" x="-10" y="-7.5" width="50" height="135.34151957022277" style="fill-opacity: 0;"/><g class="node-entered" transform="translate(0 61.170759785111386)"><path class="node-label-guide" id="fa137a_0_node_16" d="M-630,0L-4,0" transform="matrix(1 0 0 1 0 0)"/><text class="node-label" transform="scale(1 1)" style="cursor: default; fill: rgb(68, 68, 68); text-shadow: rgb(255, 255, 255) -1px 1px 1px, rgb(255, 255, 255) 1px 1px 1px, rgb(255, 255, 255) 1px -1px 1px, rgb(255, 255, 255) -1px -1px 1px; font-family: 'Open Sans', verdana, arial, sans-serif; font-size: 12px; fill-opacity: 1;"><textPath class="node-label-text-path" alignment-baseline="middle" xlink:href="#fa137a_0_node_16" startOffset="100%" text-anchor="end" style="fill: rgb(0, 0, 0);">Regional Jet</textPath></text></g></g></g></g><defs id="topdefs-7c561d"><g class="clips"/></defs><g class="layer-above"><g class="imagelayer"/><g class="shapelayer"/></g><g class="infolayer"><g class="g-gtitle"><text class="gtitle" x="350" y="12.5" text-anchor="middle" dy="0em" style="font-family: 'Open Sans', verdana, arial, sans-serif; font-size: 17px; fill: rgb(68, 68, 68); opacity: 1; font-weight: normal; white-space: pre;">Landing Summary by Geo Region and Aircraft Type During Sep 2020</text></g><g class="first-render"/></g></svg>