<svg class="main-svg" xmlns="http://www.w3.org/2000/svg" xmlns:xlink="http://www.w3.org/1999/xlink" width="700" height="500" style="" viewBox="0 0 700 500"><rect x="0" y="0" width="700" height="500" style="fill: rgb(255, 255, 255); fill-opacity: 1;"/><defs id="defs-bb4fd0"><g class="clips"/><g class="gradients"/><g class="patterns"/></defs><g class="bglayer"/><g class="layer-below"><g class="imagelayer"/><g class="shapelayer"/></g><g class="cartesianlayer"/><g class="polarlayer"/><g class="smithlayer"/><g class="ternarylayer"/><g class="geolayer"/><g class="funnelarealayer"/><g class="pielayer"/><g class="iciclelayer"/><g class="treemaplayer"/><g class="sunburstlayer"/><g class="glimages"/><g class="sankey" transform="translate(60,25)matrix(1 0 0 1 0 0)" style="box-sizing: content-box; position: absolute; left: 0px; shape-rendering: geometricprecision; pointer-events: auto;"><g class="sankey-links" style="fill: none;"><path class="sankey-link" d="M30,345.69015527644643C90,345.69015527644643 90,370.2700514641399 150,370.2700514641399L150,434.9999999999999C90,434.9999999999999 90,410.4201038123064 30,410.4201038123064Z" style="stroke: rgb(68, 68, 68); stroke-opacity: 1; fill: rgb(0, 0, 0); fill-opacity: 0.2; stroke-width: 0; opacity: 1;"/><path class="sankey-link" d="M30,65.42010381230642C90,65.42010381230642 90,75.00000000000003 150,75.00000000000003L150,355.27005146414C90,355.27005146414 90,345.69015527644643 30,345.69015527644643Z" style="stroke: rgb(68, 68, 68); stroke-opacity: 1; fill: rgb(0, 0, 0); fill-opacity: 0.2; stroke-width: 0; opacity: 1;"/><path class="sankey-link" d="M180,370.2700514641399C240,370.2700514641399 240,342.1448121880474 300,342.1448121880474L300,345.15166658669494C240,345.15166658669494 240,373.27690586278743 180,373.27690586278743Z" style="stroke: rgb(68, 68, 68); stroke-opacity: 1; fill: rgb(0, 0, 0); fill-opacity: 0.2; stroke-width: 0; opacity: 1;"/><path class="sankey-link" d="M180,373.2769058627874C240,373.2769058627874 240,373.2769058627873 300,373.2769058627873L300,434.9999999999999C240,434.9999999999999 240,434.99999999999994 180,434.99999999999994Z" style="stroke: rgb(68, 68, 68); stroke-opacity: 1; fill: rgb(0, 0, 0); fill-opacity: 0.2; stroke-width: 0; opacity: 1;"/><path class="sankey-link" d="M180,75.00000000000003C240,75.00000000000003 240,74.9999999999996 300,74.9999999999996L300,342.1448121880474C240,342.1448121880474 240,342.1448121880478 180,342.1448121880478Z" style="stroke: rgb(68, 68, 68); stroke-opacity: 1; fill: rgb(0, 0, 0); fill-opacity: 0.2; stroke-width: 0; opacity: 1;"/><path class="sankey-link" d="M180,342.1448121880478C240,342.1448121880478 240,360.1516665866951 300,360.1516665866951L300,373.2769058627873C240,373.2769058627873 240,355.27005146414 180,355.27005146414Z" style="stroke: rgb(68, 68, 68); stroke-opacity: 1; fill: rgb(0, 0, 0); fill-opacity: 0.2; stroke-width: 0; opacity: 1;"/><path class="sankey-link" d="M330,74.99999999999957C390,74.99999999999957 390,2.5579538487363607e-13 450,2.5579538487363607e-13L450,270.15166658669557C390,270.15166658669557 390,345.1516665866949 330,345.1516665866949Z" style="stroke: rgb(68, 68, 68); stroke-opacity: 1; fill: rgb(0, 0, 0); fill-opacity: 0.2; stroke-width: 0; opacity: 1;"/><path class="sankey-link" d="M330,360.1516665866951C390,360.1516665866951 390,285.15166658669574 450,285.15166658669574L450,316.16445145924007C390,316.16445145924007 390,391.16445145923944 330,391.16445145923944Z" style="stroke: rgb(68, 68, 68); stroke-opacity: 1; fill: rgb(0, 0, 0); fill-opacity: 0.2; stroke-width: 0; opacity: 1;"/><path class="sankey-link" d="M330,417.9534964681571C390,417.9534964681571 390,387.95349646815737 450,387.95349646815737L450,393.64348959742415C390,393.64348959742415 390,423.64348959742387 330,423.64348959742387Z" style="stroke: rgb(68, 68, 68); stroke-opacity: 1; fill: rgb(0, 0, 0); fill-opacity: 0.2; stroke-width: 0; opacity: 1;"/><path class="sankey-link" d="M330,423.64348959742387C390,423.64348959742387 390,408.64348959742415 450,408.64348959742415L450,417.186388801828C390,417.186388801828 390,432.1863888018277 330,432.1863888018277Z" style="stroke: rgb(68, 68, 68); stroke-opacity: 1; fill: rgb(0, 0, 0); fill-opacity: 0.2; stroke-width: 0; opacity: 1;"/><path class="sankey-link" d="M330,391.16445145923944C390,391.16445145923944 390,331.1644514592399 450,331.1644514592399L450,348.83846324259844C390,348.83846324259844 390,408.838463242598 330,408.838463242598Z" style="stroke: rgb(68, 68, 68); stroke-opacity: 1; fill: rgb(0, 0, 0); fill-opacity: 0.2; stroke-width: 0; opacity: 1;"/><path class="sankey-link" d="M330,408.838463242598C390,408.838463242598 390,363.83846324259844 450,363.83846324259844L450,372.9534964681576C390,372.9534964681576 390,417.95349646815714 330,417.95349646815714Z" style="stroke: rgb(68, 68, 68); stroke-opacity: 1; fill: rgb(0, 0, 0); fill-opacity: 0.2; stroke-width: 0; opacity: 1;"/><path class="sankey-link" d="M330,432.18638880182766C390,432.18638880182766 390,432.1863888018281 450,432.1863888018281L450,435.0000000000002C390,435.0000000000002 390,434.9999999999998 330,434.9999999999998Z" style="stroke: rgb(68, 68, 68); stroke-opacity: 1; fill: rgb(0, 0, 0); fill-opacity: 0.2; stroke-width: 0; opacity: 1;"/><path class="sankey-link" d="M480,285.15166658669574C540,285.15166658669574 540,194.9766925944116 600,194.9766925944116L600,210.49391179530346C540,210.49391179530346 540,300.6688857875876 480,300.6688857875876Z" style="stroke: rgb(68, 68, 68); stroke-opacity: 1; fill: rgb(0, 0, 0); fill-opacity: 0.2; stroke-width: 0; opacity: 1;"/><path class="sankey-link" d="M480,300.6688857875876C540,300.6688857875876 540,382.4406824996404 600,382.4406824996404L600,397.92439539078975C540,397.92439539078975 540,316.152598678737 480,316.152598678737Z" style="stroke: rgb(68, 68, 68); stroke-opacity: 1; fill: rgb(0, 0, 0); fill-opacity: 0.2; stroke-width: 0; opacity: 1;"/><path class="sankey-link" d="M480,316.15259867873704C540,316.15259867873704 540,434.9872437129728 600,434.9872437129728L600,434.9990964934759C540,434.9990964934759 540,316.1644514592401 480,316.1644514592401Z" style="stroke: rgb(0, 0, 0); stroke-opacity: 0.2; fill: rgb(0, 0, 0); fill-opacity: 0.2; stroke-width: 1; opacity: 1;"/><path class="sankey-link" d="M480,387.95349646815737C540,387.95349646815737 540,223.8441088822351 600,223.8441088822351L600,226.73664673507483C540,226.73664673507483 540,390.8460343209971 480,390.8460343209971Z" style="stroke: rgb(68, 68, 68); stroke-opacity: 1; fill: rgb(0, 0, 0); fill-opacity: 0.2; stroke-width: 0; opacity: 1;"/><path class="sankey-link" d="M480,390.8460343209971C540,390.8460343209971 540,411.36319737176615 600,411.36319737176615L600,414.1606526481932C540,414.1606526481932 540,393.64348959742415 480,393.64348959742415Z" style="stroke: rgb(68, 68, 68); stroke-opacity: 1; fill: rgb(0, 0, 0); fill-opacity: 0.2; stroke-width: 0; opacity: 1;"/><path class="sankey-link" d="M480,408.64348959742415C540,408.64348959742415 540,226.73664673507483 600,226.73664673507483L600,230.8912606927703C540,230.8912606927703 540,412.7981035551196 480,412.7981035551196Z" style="stroke: rgb(68, 68, 68); stroke-opacity: 1; fill: rgb(0, 0, 0); fill-opacity: 0.2; stroke-width: 0; opacity: 1;"/><path class="sankey-link" d="M480,412.7981035551196C540,412.7981035551196 540,414.1606526481932 600,414.1606526481932L600,418.5480803293871C540,418.5480803293871 540,417.1855312363135 480,417.1855312363135Z" style="stroke: rgb(68, 68, 68); stroke-opacity: 1; fill: rgb(0, 0, 0); fill-opacity: 0.2; stroke-width: 0; opacity: 1;"/><path class="sankey-link" d="M480,417.1855312363135C540,417.1855312363135 540,434.9991424344856 600,434.9991424344856L600,435.00000000000006C540,435.00000000000006 540,417.186388801828 480,417.186388801828Z" style="stroke: rgb(0, 0, 0); stroke-opacity: 0.2; fill: rgb(0, 0, 0); fill-opacity: 0.2; stroke-width: 1; opacity: 1;"/><path class="sankey-link" d="M480,331.1644514592399C540,331.1644514592399 540,210.49391179530346 600,210.49391179530346L600,219.31126259166535C540,219.31126259166535 540,339.9818022556018 480,339.9818022556018Z" style="stroke: rgb(68, 68, 68); stroke-opacity: 1; fill: rgb(0, 0, 0); fill-opacity: 0.2; stroke-width: 0; opacity: 1;"/><path class="sankey-link" d="M480,339.9818022556018C540,339.9818022556018 540,397.9243953907898 600,397.9243953907898L600,406.78105637778646C540,406.78105637778646 540,348.83846324259844 480,348.83846324259844Z" style="stroke: rgb(68, 68, 68); stroke-opacity: 1; fill: rgb(0, 0, 0); fill-opacity: 0.2; stroke-width: 0; opacity: 1;"/><path class="sankey-link" d="M480,363.83846324259844C540,363.83846324259844 540,219.31126259166535 600,219.31126259166535L600,223.8441088822351C540,223.8441088822351 540,368.3713095331682 480,368.3713095331682Z" style="stroke: rgb(68, 68, 68); stroke-opacity: 1; fill: rgb(0, 0, 0); fill-opacity: 0.2; stroke-width: 0; opacity: 1;"/><path class="sankey-link" d="M480,368.3713095331682C540,368.3713095331682 540,406.78105637778646 600,406.78105637778646L600,411.36319737176615C540,411.36319737176615 540,372.9534505271479 480,372.9534505271479Z" style="stroke: rgb(68, 68, 68); stroke-opacity: 1; fill: rgb(0, 0, 0); fill-opacity: 0.2; stroke-width: 0; opacity: 1;"/><path class="sankey-link" d="M480,372.9534505271479C540,372.9534505271479 540,434.99909649347586 600,434.99909649347586L600,434.9991424344856C540,434.9991424344856 540,372.9534964681576 480,372.9534964681576Z" style="stroke: rgb(0, 0, 0); stroke-opacity: 0.2; fill: rgb(0, 0, 0); fill-opacity: 0.2; stroke-width: 1; opacity: 1;"/><path class="sankey-link" d="M480,432.1863888018281C540,432.1863888018281 540,230.89126069277032 600,230.89126069277032L600,232.3514956861395C540,232.3514956861395 540,433.64662379519734 480,433.64662379519734Z" style="stroke: rgb(68, 68, 68); stroke-opacity: 1; fill: rgb(0, 0, 0); fill-opacity: 0.2; stroke-width: 0; opacity: 1;"/><path class="sankey-link" d="M480,433.6466237951973C540,433.6466237951973 540,418.5480803293871 600,418.5480803293871L600,419.9014565341901C540,419.9014565341901 540,435.0000000000003 480,435.0000000000003Z" style="stroke: rgb(68, 68, 68); stroke-opacity: 1; fill: rgb(0, 0, 0); fill-opacity: 0.2; stroke-width: 0; opacity: 1;"/><path class="sankey-link" d="M480,2.7000623958883807e-13C540,2.7000623958883807e-13 540,60.00000000000027 600,60.00000000000027L600,194.9766925944116C540,194.9766925944116 540,134.9766925944116 480,134.9766925944116Z" style="stroke: rgb(68, 68, 68); stroke-opacity: 1; fill: rgb(0, 0, 0); fill-opacity: 0.2; stroke-width: 0; opacity: 1;"/><path class="sankey-link" d="M480,134.9766925944116C540,134.9766925944116 540,247.3514956861394 600,247.3514956861394L600,382.4406824996404C540,382.4406824996404 540,270.0658794079126 480,270.0658794079126Z" style="stroke: rgb(68, 68, 68); stroke-opacity: 1; fill: rgb(0, 0, 0); fill-opacity: 0.2; stroke-width: 0; opacity: 1;"/><path class="sankey-link" d="M480,270.0658794079126C540,270.0658794079126 540,434.90145653418983 600,434.90145653418983L600,434.9872437129728C540,434.9872437129728 540,270.15166658669557 480,270.15166658669557Z" style="stroke: rgb(0, 0, 0); stroke-opacity: 0.2; fill: rgb(0, 0, 0); fill-opacity: 0.2; stroke-width: 1; opacity: 1;"/></g><g class="sankey-node-set" style="cursor: move;"><g class="sankey-node" transform="translate(0.000,65.420)" style="opacity: 1;"><rect class="node-rect" width="30" height="345" style="stroke-width: 0.5; stroke: rgb(0, 0, 0); stroke-opacity: 1; fill: rgb(31, 119, 180); fill-opacity: 0.8;"/><text class="node-label" data-notex="1" x="0" y="0" text-anchor="start" transform="translate(33.25,176.7)" style="cursor: default; font-family: 'Open Sans', verdana, arial, sans-serif; font-size: 12px; fill: rgb(68, 68, 68); fill-opacity: 1; white-space: pre; text-shadow: rgb(255, 255, 255) 1px 1px 1px, rgb(255, 255, 255) -1px -1px 1px, rgb(255, 255, 255) 1px -1px 1px, rgb(255, 255, 255) -1px 1px 1px;">United Airlines</text></g><g class="sankey-node" transform="translate(150.000,370.270)" style="opacity: 1;"><rect class="node-rect" width="30" height="64.7299485358601" style="stroke-width: 0.5; stroke: rgb(0, 0, 0); stroke-opacity: 1; fill: rgb(255, 127, 14); fill-opacity: 0.8;"/><text class="node-label" data-notex="1" x="0" y="0" text-anchor="start" transform="translate(33.25,36.564974267930054)" style="cursor: default; font-family: 'Open Sans', verdana, arial, sans-serif; font-size: 12px; fill: rgb(68, 68, 68); fill-opacity: 1; white-space: pre; text-shadow: rgb(255, 255, 255) 1px 1px 1px, rgb(255, 255, 255) -1px -1px 1px, rgb(255, 255, 255) 1px -1px 1px, rgb(255, 255, 255) -1px 1px 1px;">international</text></g><g class="sankey-node" transform="translate(150.000,75.000)" style="opacity: 1;"><rect class="node-rect" width="30" height="280.2700514641399" style="stroke-width: 0.5; stroke: rgb(0, 0, 0); stroke-opacity: 1; fill: rgb(44, 160, 44); fill-opacity: 0.8;"/><text class="node-label" data-notex="1" x="0" y="0" text-anchor="start" transform="translate(33.25,144.33502573206994)" style="cursor: default; font-family: 'Open Sans', verdana, arial, sans-serif; font-size: 12px; fill: rgb(68, 68, 68); fill-opacity: 1; white-space: pre; text-shadow: rgb(255, 255, 255) 1px 1px 1px, rgb(255, 255, 255) -1px -1px 1px, rgb(255, 255, 255) 1px -1px 1px, rgb(255, 255, 255) -1px 1px 1px;">Terminal 3</text></g><g class="sankey-node" transform="translate(300.000,75.000)" style="opacity: 1;"><rect class="node-rect" width="30" height="270.1516665866955" style="stroke-width: 0.5; stroke: rgb(0, 0, 0); stroke-opacity: 1; fill: rgb(214, 39, 40); fill-opacity: 0.8;"/><text class="node-label" data-notex="1" x="0" y="0" text-anchor="start" transform="translate(33.25,139.27583329334774)" style="cursor: default; font-family: 'Open Sans', verdana, arial, sans-serif; font-size: 12px; fill: rgb(68, 68, 68); fill-opacity: 1; white-space: pre; text-shadow: rgb(255, 255, 255) 1px 1px 1px, rgb(255, 255, 255) -1px -1px 1px, rgb(255, 255, 255) 1px -1px 1px, rgb(255, 255, 255) -1px 1px 1px;">Domestic</text></g><g class="sankey-node" transform="translate(300.000,360.152)" style="opacity: 1;"><rect class="node-rect" width="30" height="74.84833341330489" style="stroke-width: 0.5; stroke: rgb(0, 0, 0); stroke-opacity: 1; fill: rgb(148, 103, 189); fill-opacity: 0.8;"/><text class="node-label" data-notex="1" x="0" y="0" text-anchor="start" transform="translate(33.25,41.624166706652446)" style="cursor: default; font-family: 'Open Sans', verdana, arial, sans-serif; font-size: 12px; fill: rgb(68, 68, 68); fill-opacity: 1; white-space: pre; text-shadow: rgb(255, 255, 255) 1px 1px 1px, rgb(255, 255, 255) -1px -1px 1px, rgb(255, 255, 255) 1px -1px 1px, rgb(255, 255, 255) -1px 1px 1px;">International</text></g><g class="sankey-node" transform="translate(450.000,0.000)" style="opacity: 1;"><rect class="node-rect" width="30" height="270.15166658669546" style="stroke-width: 0.5; stroke: rgb(0, 0, 0); stroke-opacity: 1; fill: rgb(140, 86, 75); fill-opacity: 0.8;"/><text class="node-label" data-notex="1" x="0" y="0" text-anchor="start" transform="translate(33.25,139.27583329334772)" style="cursor: default; font-family: 'Open Sans', verdana, arial, sans-serif; font-size: 12px; fill: rgb(68, 68, 68); fill-opacity: 1; white-space: pre; text-shadow: rgb(255, 255, 255) 1px 1px 1px, rgb(255, 255, 255) -1px -1px 1px, rgb(255, 255, 255) 1px -1px 1px, rgb(255, 255, 255) -1px 1px 1px;">US</text></g><g class="sankey-node" transform="translate(450.000,285.152)" style="opacity: 1;"><rect class="node-rect" width="30" height="31.01278487254416" style="stroke-width: 0.5; stroke: rgb(0, 0, 0); stroke-opacity: 1; fill: rgb(227, 119, 194); fill-opacity: 0.8;"/><text class="node-label" data-notex="1" x="0" y="0" text-anchor="start" transform="translate(33.25,19.70639243627208)" style="cursor: default; font-family: 'Open Sans', verdana, arial, sans-serif; font-size: 12px; fill: rgb(68, 68, 68); fill-opacity: 1; white-space: pre; text-shadow: rgb(255, 255, 255) 1px 1px 1px, rgb(255, 255, 255) -1px -1px 1px, rgb(255, 255, 255) 1px -1px 1px, rgb(255, 255, 255) -1px 1px 1px;">Asia</text></g><g class="sankey-node" transform="translate(450.000,387.953)" style="opacity: 1;"><rect class="node-rect" width="30" height="5.689993129266782" style="stroke-width: 0.5; stroke: rgb(0, 0, 0); stroke-opacity: 1; fill: rgb(127, 127, 127); fill-opacity: 0.8;"/><text class="node-label" data-notex="1" x="0" y="0" text-anchor="start" transform="translate(33.25,7.04499656463339)" style="cursor: default; font-family: 'Open Sans', verdana, arial, sans-serif; font-size: 12px; fill: rgb(68, 68, 68); fill-opacity: 1; white-space: pre; text-shadow: rgb(255, 255, 255) 1px 1px 1px, rgb(255, 255, 255) -1px -1px 1px, rgb(255, 255, 255) 1px -1px 1px, rgb(255, 255, 255) -1px 1px 1px;">Australia / Oceania</text></g><g class="sankey-node" transform="translate(450.000,408.643)" style="opacity: 1;"><rect class="node-rect" width="30" height="8.542899204403966" style="stroke-width: 0.5; stroke: rgb(0, 0, 0); stroke-opacity: 1; fill: rgb(188, 189, 34); fill-opacity: 0.8;"/><text class="node-label" data-notex="1" x="0" y="0" text-anchor="start" transform="translate(33.25,8.471449602201982)" style="cursor: default; font-family: 'Open Sans', verdana, arial, sans-serif; font-size: 12px; fill: rgb(68, 68, 68); fill-opacity: 1; white-space: pre; text-shadow: rgb(255, 255, 255) 1px 1px 1px, rgb(255, 255, 255) -1px -1px 1px, rgb(255, 255, 255) 1px -1px 1px, rgb(255, 255, 255) -1px 1px 1px;">Canada</text></g><g class="sankey-node" transform="translate(450.000,331.164)" style="opacity: 1;"><rect class="node-rect" width="30" height="17.674011783358537" style="stroke-width: 0.5; stroke: rgb(0, 0, 0); stroke-opacity: 1; fill: rgb(23, 190, 207); fill-opacity: 0.8;"/><text class="node-label" data-notex="1" x="0" y="0" text-anchor="start" transform="translate(33.25,13.037005891679268)" style="cursor: default; font-family: 'Open Sans', verdana, arial, sans-serif; font-size: 12px; fill: rgb(68, 68, 68); fill-opacity: 1; white-space: pre; text-shadow: rgb(255, 255, 255) 1px 1px 1px, rgb(255, 255, 255) -1px -1px 1px, rgb(255, 255, 255) 1px -1px 1px, rgb(255, 255, 255) -1px 1px 1px;">Europe</text></g><g class="sankey-node" transform="translate(450.000,363.838)" style="opacity: 1;"><rect class="node-rect" width="30" height="9.115033225558932" style="stroke-width: 0.5; stroke: rgb(0, 0, 0); stroke-opacity: 1; fill: rgb(31, 119, 180); fill-opacity: 0.8;"/><text class="node-label" data-notex="1" x="0" y="0" text-anchor="start" transform="translate(33.25,8.757516612779465)" style="cursor: default; font-family: 'Open Sans', verdana, arial, sans-serif; font-size: 12px; fill: rgb(68, 68, 68); fill-opacity: 1; white-space: pre; text-shadow: rgb(255, 255, 255) 1px 1px 1px, rgb(255, 255, 255) -1px -1px 1px, rgb(255, 255, 255) 1px -1px 1px, rgb(255, 255, 255) -1px 1px 1px;">Mexico</text></g><g class="sankey-node" transform="translate(450.000,432.186)" style="opacity: 1;"><rect class="node-rect" width="30" height="2.813611198171884" style="stroke-width: 0.5; stroke: rgb(0, 0, 0); stroke-opacity: 1; fill: rgb(255, 127, 14); fill-opacity: 0.8;"/><text class="node-label" data-notex="1" x="0" y="0" text-anchor="start" transform="translate(33.25,5.606805599085941)" style="cursor: default; font-family: 'Open Sans', verdana, arial, sans-serif; font-size: 12px; fill: rgb(68, 68, 68); fill-opacity: 1; white-space: pre; text-shadow: rgb(255, 255, 255) 1px 1px 1px, rgb(255, 255, 255) -1px -1px 1px, rgb(255, 255, 255) 1px -1px 1px, rgb(255, 255, 255) -1px 1px 1px;">Middle East</text></g><g class="sankey-node" transform="translate(600.000,60.000)" style="opacity: 1;"><rect class="node-rect" width="30" height="172.35149568613912" style="stroke-width: 0.5; stroke: rgb(0, 0, 0); stroke-opacity: 1; fill: rgb(44, 160, 44); fill-opacity: 0.8;"/><text class="node-label" data-notex="1" x="0" y="0" text-anchor="end" transform="translate(-3.25,90.37574784306956)" style="cursor: default; font-family: 'Open Sans', verdana, arial, sans-serif; font-size: 12px; fill: rgb(68, 68, 68); fill-opacity: 1; white-space: pre; text-shadow: rgb(255, 255, 255) 1px 1px 1px, rgb(255, 255, 255) -1px -1px 1px, rgb(255, 255, 255) 1px -1px 1px, rgb(255, 255, 255) -1px 1px 1px;">Deplaned</text></g><g class="sankey-node" transform="translate(600.000,247.351)" style="opacity: 1;"><rect class="node-rect" width="30" height="172.54996084805043" style="stroke-width: 0.5; stroke: rgb(0, 0, 0); stroke-opacity: 1; fill: rgb(214, 39, 40); fill-opacity: 0.8;"/><text class="node-label" data-notex="1" x="0" y="0" text-anchor="end" transform="translate(-3.25,90.47498042402522)" style="cursor: default; font-family: 'Open Sans', verdana, arial, sans-serif; font-size: 12px; fill: rgb(68, 68, 68); fill-opacity: 1; white-space: pre; text-shadow: rgb(255, 255, 255) 1px 1px 1px, rgb(255, 255, 255) -1px -1px 1px, rgb(255, 255, 255) 1px -1px 1px, rgb(255, 255, 255) -1px 1px 1px;">Enplaned</text></g><g class="sankey-node" transform="translate(600.000,434.901)" style="opacity: 1;"><rect class="node-rect" width="30" height="0.5" style="stroke-width: 0.5; stroke: rgb(0, 0, 0); stroke-opacity: 1; fill: rgb(148, 103, 189); fill-opacity: 0.8;"/><text class="node-label" data-notex="1" x="0" y="0" text-anchor="end" transform="translate(-3.25,4.449999999999999)" style="cursor: default; font-family: 'Open Sans', verdana, arial, sans-serif; font-size: 12px; fill: rgb(68, 68, 68); fill-opacity: 1; white-space: pre; text-shadow: rgb(255, 255, 255) 1px 1px 1px, rgb(255, 255, 255) -1px -1px 1px, rgb(255, 255, 255) 1px -1px 1px, rgb(255, 255, 255) -1px 1px 1px;">Thru / Transit</text></g></g></g><defs id="topdefs-bb4fd0"><g class="clips"/></defs><g class="layer-above"><g class="imagelayer"/><g class="shapelayer"/></g><g class="infolayer"><g class="g-gtitle"><text class="gtitle" x="350" y="12.5" text-anchor="middle" dy="0em" style="font-family: 'Open Sans', verdana, arial, sans-serif; font-size: 17px; fill: rgb(68, 68, 68); opacity: 1; font-weight: normal; white-space: pre;">Dist. of United Airlines Passengers at SFO During 2019</text></g><g class="first-render"/></g></svg>