<svg class="main-svg" xmlns="http://www.w3.org/2000/svg" xmlns:xlink="http://www.w3.org/1999/xlink" width="700" height="500" style="" viewBox="0 0 700 500"><rect x="0" y="0" width="700" height="500" style="fill: rgb(255, 255, 255); fill-opacity: 1;"/><defs id="defs-056b0d"><g class="clips"><clipPath id="clip056b0dxyplot" class="plotclip"><rect width="630" height="435"/></clipPath><clipPath class="axesclip" id="clip056b0dx"><rect x="60" y="0" width="630" height="500"/></clipPath><clipPath class="axesclip" id="clip056b0dy"><rect x="0" y="25" width="700" height="435"/></clipPath><clipPath class="axesclip" id="clip056b0dxy"><rect x="60" y="25" width="630" height="435"/></clipPath></g><g class="gradients"/><g class="patterns"/></defs><g class="bglayer"/><g class="layer-below"><g class="imagelayer"/><g class="shapelayer"/></g><g class="cartesianlayer"><g class="subplot xy"><g class="layer-subplot"><g class="shapelayer"/><g class="imagelayer"/></g><g class="gridlayer"><g class="x"><path class="xgrid crisp" transform="translate(78.22,0)" d="M0,25v435" style="stroke: rgb(238, 238, 238); stroke-opacity: 1; stroke-width: 1px;"/><path class="xgrid crisp" transform="translate(150.51,0)" d="M0,25v435" style="stroke: rgb(238, 238, 238); stroke-opacity: 1; stroke-width: 1px;"/><path class="xgrid crisp" transform="translate(222.9,0)" d="M0,25v435" style="stroke: rgb(238, 238, 238); stroke-opacity: 1; stroke-width: 1px;"/><path class="xgrid crisp" transform="translate(295.19,0)" d="M0,25v435" style="stroke: rgb(238, 238, 238); stroke-opacity: 1; stroke-width: 1px;"/><path class="xgrid crisp" transform="translate(367.57,0)" d="M0,25v435" style="stroke: rgb(238, 238, 238); stroke-opacity: 1; stroke-width: 1px;"/><path class="xgrid crisp" transform="translate(439.86,0)" d="M0,25v435" style="stroke: rgb(238, 238, 238); stroke-opacity: 1; stroke-width: 1px;"/><path class="xgrid crisp" transform="translate(512.25,0)" d="M0,25v435" style="stroke: rgb(238, 238, 238); stroke-opacity: 1; stroke-width: 1px;"/><path class="xgrid crisp" transform="translate(584.54,0)" d="M0,25v435" style="stroke: rgb(238, 238, 238); stroke-opacity: 1; stroke-width: 1px;"/><path class="xgrid crisp" transform="translate(656.93,0)" d="M0,25v435" style="stroke: rgb(238, 238, 238); stroke-opacity: 1; stroke-width: 1px;"/></g><g class="y"><path class="ygrid crisp" transform="translate(0,378.08)" d="M60,0h630" style="stroke: rgb(238, 238, 238); stroke-opacity: 1; stroke-width: 1px;"/><path class="ygrid crisp" transform="translate(0,308.22)" d="M60,0h630" style="stroke: rgb(238, 238, 238); stroke-opacity: 1; stroke-width: 1px;"/><path class="ygrid crisp" transform="translate(0,238.35)" d="M60,0h630" style="stroke: rgb(238, 238, 238); stroke-opacity: 1; stroke-width: 1px;"/><path class="ygrid crisp" transform="translate(0,168.49)" d="M60,0h630" style="stroke: rgb(238, 238, 238); stroke-opacity: 1; stroke-width: 1px;"/><path class="ygrid crisp" transform="translate(0,98.62)" d="M60,0h630" style="stroke: rgb(238, 238, 238); stroke-opacity: 1; stroke-width: 1px;"/><path class="ygrid crisp" transform="translate(0,28.759999999999998)" d="M60,0h630" style="stroke: rgb(238, 238, 238); stroke-opacity: 1; stroke-width: 1px;"/></g></g><g class="zerolinelayer"><path class="yzl zl crisp" transform="translate(0,447.95)" d="M60,0h630" style="stroke: rgb(68, 68, 68); stroke-opacity: 1; stroke-width: 1px;"/></g><path class="xlines-below"/><path class="ylines-below"/><g class="overlines-below"/><g class="xaxislayer-below"/><g class="yaxislayer-below"/><g class="overaxes-below"/><g class="plot" transform="translate(60,25)" clip-path="url(#clip056b0dxyplot)"><g class="scatterlayer mlayer"><g class="trace scatter trace097337" style="stroke-miterlimit: 2; opacity: 1;"><g class="fills"/><g class="errorbars"/><g class="lines"><path class="js-line" d="M0,197.58L3.07,199.67L6.14,231.48L9.11,229.37L12.18,240.09L15.15,236.28L18.22,251.86L21.29,267.64L24.06,233.7L30.1,225.3L33.17,208.36L36.14,197.45L39.21,203.3L42.28,232.91L45.25,224.88L48.32,237.53L51.3,234.44L57.43,261.91L60.21,225.92L63.28,222.49L66.25,209.37L69.32,194.93L72.29,186.64L75.36,182.86L78.43,216.32L81.4,204.32L84.47,218.77L87.44,220.08L90.51,236.4L93.58,241.6L96.45,204.45L99.52,211.32L102.49,191.98L108.53,171.16L111.6,170.57L114.67,213.02L117.64,204.66L120.71,231.2L123.68,215.94L129.82,258.08L132.6,218.53L135.66,211.61L138.64,200.98L144.68,167.96L147.75,167.89L150.82,199.97L153.79,195.93L156.86,215.34L159.83,208.17L165.97,247.21L168.74,205.95L171.81,203.64L174.78,186.78L177.85,170.53L180.82,159.85L183.89,159.43L186.96,188.45L189.93,179.11L193,201.92L195.97,201.68L199.04,221.47L202.11,240.55L204.88,204.32L207.95,199.34L210.92,175.08L216.96,147.99L220.03,149.22L223.1,173.88L226.08,171.26L229.14,190.52L232.12,182.49L238.26,213.48L241.13,180.34L244.2,174.02L247.17,156.02L250.24,136L253.21,123.61L256.28,118.6L259.35,156.11L262.32,154.32L265.39,179.89L268.36,182.4L271.43,199.05L274.5,215.69L277.27,171.9L280.34,171.15L283.31,148.17L286.38,133.23L289.35,131.16L292.42,119.24L295.49,158.78L298.46,149.72L301.53,180.73L304.5,156.41L307.57,183.13L310.64,207.87L313.42,159.87L316.49,151.74L319.46,133.21L325.5,108.61L328.57,106.81L331.64,149.14L334.61,139.33L337.68,169.42L340.65,153.56L346.79,196.02L349.56,143.38L352.63,141.97L355.6,118.26L358.67,104.47L361.64,87.51L364.71,87.83L367.78,129.42L370.75,117.3L373.82,142.52L376.79,134.47L379.86,161.06L382.93,175.37L385.8,133.87L388.87,131.43L391.84,103.38L394.91,79.06L397.88,61.83L400.95,65.89L404.02,105.5L406.99,103.52L410.06,124.87L413.04,119.5L416.1,150.63L419.17,179.72L421.95,120.06L425.02,113.73L427.99,94.72L434.03,38.93L437.1,37.51L440.17,92.06L443.14,82.8L446.21,103.47L449.18,97.34L452.25,130.19L455.32,151.72L458.09,96.39L461.16,93.66L470.17,25.23L473.24,35.48L476.31,98.14L479.28,83.28L482.35,107.95L485.32,103.21L491.46,160.76L494.24,101.62L497.31,95.07L500.28,73.06L503.35,41.02L506.32,30.84L509.39,21.75L512.46,110.55L515.43,85.88L518.5,117.6L521.47,93.11L524.54,126.6L527.61,161.5L530.48,291.22L533.55,413.25L536.52,402.93L542.56,369.48L545.63,363.38L548.7,359.65L551.67,347.92L554.74,349.43L557.71,358.76L560.78,369.16L563.85,371.5L566.62,341.9L569.69,321.23L572.66,301.45L575.73,266.06L578.7,232.08L581.77,237.86L584.84,253.88L587.82,233.5L590.88,227.35L593.86,219.26L596.93,276.75L600,265.33L602.77,206.89L605.84,184.61L608.81,166.11L611.88,136.87L614.85,275.6L617.92,279.5L620.99,287.12L623.96,284.18L627.03,295.29L630,292.08" style="vector-effect: non-scaling-stroke; fill: none; stroke: rgb(31, 119, 180); stroke-opacity: 1; stroke-width: 2px; opacity: 1;"/></g><g class="points"/><g class="text"/></g></g></g><g class="overplot"/><path class="xlines-above crisp" d="M0,0" style="fill: none;"/><path class="ylines-above crisp" d="M0,0" style="fill: none;"/><g class="overlines-above"/><g class="xaxislayer-above"><g class="xtick"><text text-anchor="middle" x="0" y="473" transform="translate(78.22,0)" style="font-family: 'Open Sans', verdana, arial, sans-serif; font-size: 12px; fill: rgb(68, 68, 68); fill-opacity: 1; white-space: pre; opacity: 1;">2006</text></g><g class="xtick"><text text-anchor="middle" x="0" y="473" style="font-family: 'Open Sans', verdana, arial, sans-serif; font-size: 12px; fill: rgb(68, 68, 68); fill-opacity: 1; white-space: pre; opacity: 1;" transform="translate(150.51,0)">2008</text></g><g class="xtick"><text text-anchor="middle" x="0" y="473" style="font-family: 'Open Sans', verdana, arial, sans-serif; font-size: 12px; fill: rgb(68, 68, 68); fill-opacity: 1; white-space: pre; opacity: 1;" transform="translate(222.9,0)">2010</text></g><g class="xtick"><text text-anchor="middle" x="0" y="473" style="font-family: 'Open Sans', verdana, arial, sans-serif; font-size: 12px; fill: rgb(68, 68, 68); fill-opacity: 1; white-space: pre; opacity: 1;" transform="translate(295.19,0)">2012</text></g><g class="xtick"><text text-anchor="middle" x="0" y="473" style="font-family: 'Open Sans', verdana, arial, sans-serif; font-size: 12px; fill: rgb(68, 68, 68); fill-opacity: 1; white-space: pre; opacity: 1;" transform="translate(367.57,0)">2014</text></g><g class="xtick"><text text-anchor="middle" x="0" y="473" style="font-family: 'Open Sans', verdana, arial, sans-serif; font-size: 12px; fill: rgb(68, 68, 68); fill-opacity: 1; white-space: pre; opacity: 1;" transform="translate(439.86,0)">2016</text></g><g class="xtick"><text text-anchor="middle" x="0" y="473" style="font-family: 'Open Sans', verdana, arial, sans-serif; font-size: 12px; fill: rgb(68, 68, 68); fill-opacity: 1; white-space: pre; opacity: 1;" transform="translate(512.25,0)">2018</text></g><g class="xtick"><text text-anchor="middle" x="0" y="473" style="font-family: 'Open Sans', verdana, arial, sans-serif; font-size: 12px; fill: rgb(68, 68, 68); fill-opacity: 1; white-space: pre; opacity: 1;" transform="translate(584.54,0)">2020</text></g><g class="xtick"><text text-anchor="middle" x="0" y="473" style="font-family: 'Open Sans', verdana, arial, sans-serif; font-size: 12px; fill: rgb(68, 68, 68); fill-opacity: 1; white-space: pre; opacity: 1;" transform="translate(656.93,0)">2022</text></g></g><g class="yaxislayer-above"><g class="ytick"><text text-anchor="end" x="59" y="4.199999999999999" transform="translate(0,447.95)" style="font-family: 'Open Sans', verdana, arial, sans-serif; font-size: 12px; fill: rgb(68, 68, 68); fill-opacity: 1; white-space: pre; opacity: 1;">0</text></g><g class="ytick"><text text-anchor="end" x="59" y="4.199999999999999" style="font-family: 'Open Sans', verdana, arial, sans-serif; font-size: 12px; fill: rgb(68, 68, 68); fill-opacity: 1; white-space: pre; opacity: 1;" transform="translate(0,378.08)">2M</text></g><g class="ytick"><text text-anchor="end" x="59" y="4.199999999999999" style="font-family: 'Open Sans', verdana, arial, sans-serif; font-size: 12px; fill: rgb(68, 68, 68); fill-opacity: 1; white-space: pre; opacity: 1;" transform="translate(0,308.22)">4M</text></g><g class="ytick"><text text-anchor="end" x="59" y="4.199999999999999" style="font-family: 'Open Sans', verdana, arial, sans-serif; font-size: 12px; fill: rgb(68, 68, 68); fill-opacity: 1; white-space: pre; opacity: 1;" transform="translate(0,238.35)">6M</text></g><g class="ytick"><text text-anchor="end" x="59" y="4.199999999999999" style="font-family: 'Open Sans', verdana, arial, sans-serif; font-size: 12px; fill: rgb(68, 68, 68); fill-opacity: 1; white-space: pre; opacity: 1;" transform="translate(0,168.49)">8M</text></g><g class="ytick"><text text-anchor="end" x="59" y="4.199999999999999" style="font-family: 'Open Sans', verdana, arial, sans-serif; font-size: 12px; fill: rgb(68, 68, 68); fill-opacity: 1; white-space: pre; opacity: 1;" transform="translate(0,98.62)">10M</text></g><g class="ytick"><text text-anchor="end" x="59" y="4.199999999999999" style="font-family: 'Open Sans', verdana, arial, sans-serif; font-size: 12px; fill: rgb(68, 68, 68); fill-opacity: 1; white-space: pre; opacity: 1;" transform="translate(0,28.759999999999998)">12M</text></g></g><g class="overaxes-above"/></g></g><g class="polarlayer"/><g class="smithlayer"/><g class="ternarylayer"/><g class="geolayer"/><g class="funnelarealayer"/><g class="pielayer"/><g class="iciclelayer"/><g class="treemaplayer"/><g class="sunburstlayer"/><g class="glimages"/><defs id="topdefs-056b0d"><g class="clips"/></defs><g class="layer-above"><g class="imagelayer"/><g class="shapelayer"/></g><g class="infolayer"><g class="g-gtitle"><text class="gtitle" x="350" y="12.5" text-anchor="middle" dy="0em" style="font-family: 'Open Sans', verdana, arial, sans-serif; font-size: 17px; fill: rgb(68, 68, 68); opacity: 1; font-weight: normal; white-space: pre;">Monthly Air Traffic Passengers in SFO</text></g><g class="g-xtitle" transform="translate(0,-15)"><text class="xtitle" x="375" y="512" text-anchor="middle" style="font-family: 'Open Sans', verdana, arial, sans-serif; font-size: 14px; fill: rgb(68, 68, 68); opacity: 1; font-weight: normal; white-space: pre;">Source: San Francisco data portal (DataSF)</text></g><g class="g-ytitle"><text class="ytitle" transform="rotate(-90,22,242.5)" x="22" y="242.5" text-anchor="middle" style="font-family: 'Open Sans', verdana, arial, sans-serif; font-size: 14px; fill: rgb(68, 68, 68); opacity: 1; font-weight: normal; white-space: pre;">Number of Passengers</text></g></g></svg>