<svg class="main-svg" xmlns="http://www.w3.org/2000/svg" xmlns:xlink="http://www.w3.org/1999/xlink" width="700" height="500" style="" viewBox="0 0 700 500"><rect x="0" y="0" width="700" height="500" style="fill: rgb(255, 255, 255); fill-opacity: 1;"/><defs id="defs-fc0014"><g class="clips"><clipPath id="clipfc0014xyplot" class="plotclip"><rect width="630" height="435"/></clipPath><clipPath class="axesclip" id="clipfc0014x"><rect x="60" y="0" width="630" height="500"/></clipPath><clipPath class="axesclip" id="clipfc0014y"><rect x="0" y="25" width="700" height="435"/></clipPath><clipPath class="axesclip" id="clipfc0014xy"><rect x="60" y="25" width="630" height="435"/></clipPath></g><g class="gradients"/></defs><g class="bglayer"/><g class="layer-below"><g class="imagelayer"/><g class="shapelayer"/></g><g class="cartesianlayer"><g class="subplot xy"><g class="layer-subplot"><g class="shapelayer"/><g class="imagelayer"/></g><g class="gridlayer"><g class="x"><path class="xgrid crisp" transform="translate(79.94,0)" d="M0,25v435" style="stroke: rgb(238, 238, 238); stroke-opacity: 1; stroke-width: 1px;"/><path class="xgrid crisp" transform="translate(159.04000000000002,0)" d="M0,25v435" style="stroke: rgb(238, 238, 238); stroke-opacity: 1; stroke-width: 1px;"/><path class="xgrid crisp" transform="translate(238.25,0)" d="M0,25v435" style="stroke: rgb(238, 238, 238); stroke-opacity: 1; stroke-width: 1px;"/><path class="xgrid crisp" transform="translate(317.35,0)" d="M0,25v435" style="stroke: rgb(238, 238, 238); stroke-opacity: 1; stroke-width: 1px;"/><path class="xgrid crisp" transform="translate(396.56,0)" d="M0,25v435" style="stroke: rgb(238, 238, 238); stroke-opacity: 1; stroke-width: 1px;"/><path class="xgrid crisp" transform="translate(475.67,0)" d="M0,25v435" style="stroke: rgb(238, 238, 238); stroke-opacity: 1; stroke-width: 1px;"/><path class="xgrid crisp" transform="translate(554.88,0)" d="M0,25v435" style="stroke: rgb(238, 238, 238); stroke-opacity: 1; stroke-width: 1px;"/><path class="xgrid crisp" transform="translate(633.98,0)" d="M0,25v435" style="stroke: rgb(238, 238, 238); stroke-opacity: 1; stroke-width: 1px;"/></g><g class="y"><path class="ygrid crisp" transform="translate(0,378.08)" d="M60,0h630" style="stroke: rgb(238, 238, 238); stroke-opacity: 1; stroke-width: 1px;"/><path class="ygrid crisp" transform="translate(0,308.22)" d="M60,0h630" style="stroke: rgb(238, 238, 238); stroke-opacity: 1; stroke-width: 1px;"/><path class="ygrid crisp" transform="translate(0,238.35)" d="M60,0h630" style="stroke: rgb(238, 238, 238); stroke-opacity: 1; stroke-width: 1px;"/><path class="ygrid crisp" transform="translate(0,168.49)" d="M60,0h630" style="stroke: rgb(238, 238, 238); stroke-opacity: 1; stroke-width: 1px;"/><path class="ygrid crisp" transform="translate(0,98.62)" d="M60,0h630" style="stroke: rgb(238, 238, 238); stroke-opacity: 1; stroke-width: 1px;"/><path class="ygrid crisp" transform="translate(0,28.759999999999998)" d="M60,0h630" style="stroke: rgb(238, 238, 238); stroke-opacity: 1; stroke-width: 1px;"/></g></g><g class="zerolinelayer"><path class="yzl zl crisp" transform="translate(0,447.95)" d="M60,0h630" style="stroke: rgb(68, 68, 68); stroke-opacity: 1; stroke-width: 1px;"/></g><path class="xlines-below"/><path class="ylines-below"/><g class="overlines-below"/><g class="xaxislayer-below"/><g class="yaxislayer-below"/><g class="overaxes-below"/><g class="plot" transform="translate(60, 25)" clip-path="url('#clipfc0014xyplot')"><g class="scatterlayer mlayer"><g class="trace scatter trace7c42bc" style="stroke-miterlimit: 2; opacity: 1;"><g class="fills"/><g class="errorbars"/><g class="lines"><path class="js-line" d="M0,197.58L3.36,199.67L6.72,231.48L9.97,229.37L13.33,240.09L16.58,236.28L19.94,251.86L23.3,267.64L26.33,233.7L32.94,225.3L36.3,208.36L39.55,197.45L42.91,203.3L46.27,232.91L49.52,224.88L52.88,237.53L56.13,234.44L62.85,261.91L65.88,225.92L69.24,222.49L72.49,209.37L75.85,194.93L79.1,186.64L82.46,182.86L85.82,216.32L89.07,204.32L92.43,218.77L95.68,220.08L99.04,236.4L102.4,241.6L105.54,204.45L108.9,211.32L112.15,191.98L118.76,171.16L122.12,170.57L125.48,213.02L128.73,204.66L132.09,231.2L135.34,215.94L142.06,258.08L145.09,218.53L148.45,211.61L151.7,200.98L158.31,167.96L161.67,167.89L165.03,199.97L168.28,195.93L171.64,215.34L174.89,208.17L181.61,247.21L184.64,205.95L188,203.64L191.25,186.78L194.61,170.53L197.86,159.85L201.22,159.43L204.58,188.45L207.83,179.11L211.19,201.92L214.44,201.68L217.8,221.47L221.16,240.55L224.2,204.32L227.55,199.34L230.8,175.08L237.41,147.99L240.77,149.22L244.13,173.88L247.38,171.26L250.74,190.52L253.99,182.49L260.71,213.48L263.85,180.34L267.21,174.02L270.46,156.02L273.82,136L277.07,123.61L280.43,118.6L283.79,156.11L287.04,154.32L290.4,179.89L293.65,182.4L297.01,199.05L300.37,215.69L303.41,171.9L306.76,171.15L310.02,148.17L313.37,133.23L316.63,131.16L319.98,119.24L323.34,158.78L326.59,149.72L329.95,180.73L333.2,156.41L336.56,183.13L339.92,207.87L342.96,159.87L346.32,151.74L349.57,133.21L356.18,108.61L359.54,106.81L362.89,149.14L366.15,139.33L369.5,169.42L372.76,153.56L379.47,196.02L382.51,143.38L385.87,141.97L389.12,118.26L392.48,104.47L395.73,87.51L399.09,87.83L402.45,129.42L405.7,117.3L409.06,142.52L412.31,134.47L415.67,161.06L419.02,175.37L422.17,133.87L425.53,131.43L428.78,103.38L432.14,79.06L435.39,61.83L438.75,65.89L442.11,105.5L445.36,103.52L448.72,124.87L451.97,119.5L455.33,150.63L458.68,179.72L461.72,120.06L465.08,113.73L468.33,94.72L474.94,38.93L478.3,37.51L481.66,92.06L484.91,82.8L488.27,103.47L491.52,97.34L494.88,130.19L498.24,151.72L501.27,96.39L504.63,93.66L507.88,71.83L511.24,43.78L514.49,25.23L517.85,35.48L521.21,98.14L524.46,83.28L527.82,107.95L531.07,103.21L537.79,160.76L540.82,101.62L544.18,95.07L547.43,73.06L550.79,41.02L554.04,30.84L557.4,21.75L560.76,110.55L564.01,85.88L567.37,117.6L570.62,93.11L573.98,126.6L577.34,161.5L580.48,291.22L583.84,413.25L587.09,402.93L593.7,369.48L597.06,363.38L600.42,359.65L603.67,347.92L607.03,349.43L610.28,358.76L613.64,369.16L617,371.5L620.03,341.9L623.39,372.09L626.64,362.2L630,344.51" style="vector-effect: non-scaling-stroke; fill: none; stroke: rgb(31, 119, 180); stroke-opacity: 1; stroke-width: 2px; opacity: 1;"/></g><g class="points"/><g class="text"/></g></g></g><g class="overplot"/><path class="xlines-above crisp" d="M0,0" style="fill: none;"/><path class="ylines-above crisp" d="M0,0" style="fill: none;"/><g class="overlines-above"/><g class="xaxislayer-above"><g class="xtick"><text text-anchor="middle" x="0" y="473" transform="translate(79.94,0)" style="font-family: 'Open Sans', verdana, arial, sans-serif; font-size: 12px; fill: rgb(68, 68, 68); fill-opacity: 1; white-space: pre;">2006</text></g><g class="xtick"><text text-anchor="middle" x="0" y="473" transform="translate(159.04000000000002,0)" style="font-family: 'Open Sans', verdana, arial, sans-serif; font-size: 12px; fill: rgb(68, 68, 68); fill-opacity: 1; white-space: pre;">2008</text></g><g class="xtick"><text text-anchor="middle" x="0" y="473" transform="translate(238.25,0)" style="font-family: 'Open Sans', verdana, arial, sans-serif; font-size: 12px; fill: rgb(68, 68, 68); fill-opacity: 1; white-space: pre;">2010</text></g><g class="xtick"><text text-anchor="middle" x="0" y="473" transform="translate(317.35,0)" style="font-family: 'Open Sans', verdana, arial, sans-serif; font-size: 12px; fill: rgb(68, 68, 68); fill-opacity: 1; white-space: pre;">2012</text></g><g class="xtick"><text text-anchor="middle" x="0" y="473" transform="translate(396.56,0)" style="font-family: 'Open Sans', verdana, arial, sans-serif; font-size: 12px; fill: rgb(68, 68, 68); fill-opacity: 1; white-space: pre;">2014</text></g><g class="xtick"><text text-anchor="middle" x="0" y="473" transform="translate(475.67,0)" style="font-family: 'Open Sans', verdana, arial, sans-serif; font-size: 12px; fill: rgb(68, 68, 68); fill-opacity: 1; white-space: pre;">2016</text></g><g class="xtick"><text text-anchor="middle" x="0" y="473" transform="translate(554.88,0)" style="font-family: 'Open Sans', verdana, arial, sans-serif; font-size: 12px; fill: rgb(68, 68, 68); fill-opacity: 1; white-space: pre;">2018</text></g><g class="xtick"><text text-anchor="middle" x="0" y="473" transform="translate(633.98,0)" style="font-family: 'Open Sans', verdana, arial, sans-serif; font-size: 12px; fill: rgb(68, 68, 68); fill-opacity: 1; white-space: pre;">2020</text></g></g><g class="yaxislayer-above"><g class="ytick"><text text-anchor="end" x="59" y="4.199999999999999" transform="translate(0,447.95)" style="font-family: 'Open Sans', verdana, arial, sans-serif; font-size: 12px; fill: rgb(68, 68, 68); fill-opacity: 1; white-space: pre;">0</text></g><g class="ytick"><text text-anchor="end" x="59" y="4.199999999999999" transform="translate(0,378.08)" style="font-family: 'Open Sans', verdana, arial, sans-serif; font-size: 12px; fill: rgb(68, 68, 68); fill-opacity: 1; white-space: pre;">2M</text></g><g class="ytick"><text text-anchor="end" x="59" y="4.199999999999999" transform="translate(0,308.22)" style="font-family: 'Open Sans', verdana, arial, sans-serif; font-size: 12px; fill: rgb(68, 68, 68); fill-opacity: 1; white-space: pre;">4M</text></g><g class="ytick"><text text-anchor="end" x="59" y="4.199999999999999" transform="translate(0,238.35)" style="font-family: 'Open Sans', verdana, arial, sans-serif; font-size: 12px; fill: rgb(68, 68, 68); fill-opacity: 1; white-space: pre;">6M</text></g><g class="ytick"><text text-anchor="end" x="59" y="4.199999999999999" transform="translate(0,168.49)" style="font-family: 'Open Sans', verdana, arial, sans-serif; font-size: 12px; fill: rgb(68, 68, 68); fill-opacity: 1; white-space: pre;">8M</text></g><g class="ytick"><text text-anchor="end" x="59" y="4.199999999999999" transform="translate(0,98.62)" style="font-family: 'Open Sans', verdana, arial, sans-serif; font-size: 12px; fill: rgb(68, 68, 68); fill-opacity: 1; white-space: pre;">10M</text></g><g class="ytick"><text text-anchor="end" x="59" y="4.199999999999999" transform="translate(0,28.759999999999998)" style="font-family: 'Open Sans', verdana, arial, sans-serif; font-size: 12px; fill: rgb(68, 68, 68); fill-opacity: 1; white-space: pre;">12M</text></g></g><g class="overaxes-above"/></g></g><g class="polarlayer"/><g class="ternarylayer"/><g class="geolayer"/><g class="funnelarealayer"/><g class="pielayer"/><g class="treemaplayer"/><g class="sunburstlayer"/><g class="glimages"/><defs id="topdefs-fc0014"><g class="clips"/></defs><g class="layer-above"><g class="imagelayer"/><g class="shapelayer"/></g><g class="infolayer"><g class="g-gtitle"><text class="gtitle" x="350" y="12.5" text-anchor="middle" dy="0em" style="font-family: 'Open Sans', verdana, arial, sans-serif; font-size: 17px; fill: rgb(68, 68, 68); opacity: 1; font-weight: normal; white-space: pre;">Monthly Air Traffic Passengers in SFO</text></g><g class="g-xtitle" transform="translate(0,-15)"><text class="xtitle" x="375" y="512" text-anchor="middle" style="font-family: 'Open Sans', verdana, arial, sans-serif; font-size: 14px; fill: rgb(68, 68, 68); opacity: 1; font-weight: normal; white-space: pre;">Source: San Francisco data portal (DataSF)</text></g><g class="g-ytitle"><text class="ytitle" transform="rotate(-90,22,242.5)" x="22" y="242.5" text-anchor="middle" style="font-family: 'Open Sans', verdana, arial, sans-serif; font-size: 14px; fill: rgb(68, 68, 68); opacity: 1; font-weight: normal; white-space: pre;">Number of Passengers</text></g></g></svg>